<?xml version="1.0" encoding="utf-8" standalone="no"?>
<!DOCTYPE svg PUBLIC "-//W3C//DTD SVG 1.1//EN"
  "http://www.w3.org/Graphics/SVG/1.1/DTD/svg11.dtd">
<svg xmlns:xlink="http://www.w3.org/1999/xlink" width="576pt" height="432pt" viewBox="0 0 576 432" xmlns="http://www.w3.org/2000/svg" version="1.1">
 <metadata>
  <rdf:RDF xmlns:dc="http://purl.org/dc/elements/1.1/" xmlns:cc="http://creativecommons.org/ns#" xmlns:rdf="http://www.w3.org/1999/02/22-rdf-syntax-ns#">
   <cc:Work>
    <dc:type rdf:resource="http://purl.org/dc/dcmitype/StillImage"/>
    <dc:date>2024-11-20T02:42:42.857744</dc:date>
    <dc:format>image/svg+xml</dc:format>
    <dc:creator>
     <cc:Agent>
      <dc:title>Matplotlib v3.8.2, https://matplotlib.org/</dc:title>
     </cc:Agent>
    </dc:creator>
   </cc:Work>
  </rdf:RDF>
 </metadata>
 <defs>
  <style type="text/css">*{stroke-linejoin: round; stroke-linecap: butt}</style>
 </defs>
 <g id="figure_1">
  <g id="patch_1">
   <path d="M 0 432 
L 576 432 
L 576 0 
L 0 0 
z
" style="fill: #ffffff"/>
  </g>
  <g id="axes_1">
   <g id="patch_2">
    <path d="M 72 378 
L 518.4 378 
L 518.4 51.84 
L 72 51.84 
z
" style="fill: #ffffff"/>
   </g>
   <g id="line2d_1">
    <path d="M 127.8 280.075022 
L 128.916 286.466614 
L 131.148 297.083343 
L 133.38 304.973717 
L 135.612 310.768743 
L 136.728 313.171395 
L 137.844 314.481486 
L 138.96 316.598159 
L 141.192 318.0084 
L 142.308 318.586702 
L 143.424 318.702576 
L 144.54 319.180652 
L 145.656 318.793484 
L 150.12 316.560321 
L 152.352 314.844549 
L 153.468 314.035122 
L 154.584 313.659186 
L 155.7 312.744232 
L 159.048 311.036081 
L 161.28 310.338207 
L 162.396 309.995456 
L 163.512 309.785641 
L 165.744 309.768932 
L 166.86 309.140909 
L 167.976 308.996601 
L 169.092 308.294753 
L 170.208 307.730744 
L 172.44 305.782785 
L 173.556 303.996886 
L 174.672 301.868862 
L 175.788 299.25319 
L 176.904 295.902778 
L 178.02 291.981597 
L 179.136 287.617076 
L 180.252 282.73112 
L 181.368 276.62377 
L 183.6 262.488829 
L 184.716 254.446647 
L 188.064 225.484621 
L 190.296 203.94991 
L 192.528 181.26068 
L 196.992 138.466431 
L 198.108 128.831541 
L 200.34 113.007329 
L 201.456 107.476502 
L 202.572 102.876263 
L 203.688 99.601795 
L 204.804 98.461149 
L 205.92 98.471597 
L 207.036 100.00913 
L 208.152 103.26278 
L 209.268 107.414449 
L 211.5 119.963179 
L 213.732 136.639966 
L 214.848 145.491088 
L 221.544 205.076588 
L 223.776 222.673572 
L 226.008 238.201055 
L 227.124 245.008393 
L 229.356 256.294389 
L 230.472 259.691509 
L 231.588 263.598649 
L 233.82 268.142834 
L 234.936 269.045255 
L 236.052 269.347609 
L 237.168 269.369346 
L 238.284 268.249825 
L 239.4 266.669746 
L 240.516 264.614968 
L 241.632 262.326176 
L 242.748 259.745009 
L 244.98 253.940511 
L 246.096 250.820439 
L 249.444 242.907367 
L 250.56 241.29475 
L 251.676 239.115656 
L 252.792 238.627554 
L 253.908 237.694068 
L 255.024 237.986845 
L 256.14 238.557904 
L 257.256 239.913344 
L 258.372 241.488353 
L 259.488 243.681128 
L 260.604 246.49013 
L 261.72 249.630187 
L 263.952 257.089953 
L 268.416 275.153217 
L 270.648 284.915552 
L 276.228 308.314791 
L 277.344 312.036222 
L 278.46 316.48405 
L 282.924 330.887272 
L 285.156 336.985788 
L 287.388 342.313629 
L 290.736 348.924144 
L 291.852 350.873328 
L 295.2 355.843814 
L 297.432 358.397629 
L 298.548 359.24709 
L 299.664 360.879114 
L 300.78 361.658915 
L 301.896 362.891197 
L 303.012 363.339022 
L 304.128 364.291251 
L 309.708 367.035783 
L 310.824 367.761812 
L 311.94 367.803809 
L 313.056 368.425953 
L 314.172 368.327337 
L 316.404 369.10848 
L 317.52 369.256072 
L 318.636 369.591065 
L 319.752 369.676586 
L 320.868 370.070359 
L 321.984 369.937818 
L 323.1 370.545704 
L 324.216 370.475205 
L 325.332 370.268427 
L 326.448 370.692284 
L 328.68 370.994898 
L 329.796 370.894534 
L 334.26 371.510442 
L 335.376 370.964013 
L 337.608 371.414837 
L 338.724 371.352446 
L 339.84 371.670359 
L 340.956 371.341213 
L 342.072 371.52347 
L 343.188 371.317948 
L 344.304 371.543395 
L 345.42 371.421968 
L 349.884 371.873887 
L 351 371.503078 
L 352.116 371.462558 
L 355.464 371.901524 
L 356.58 371.583776 
L 357.696 371.825401 
L 358.812 371.613927 
L 359.928 372.024611 
L 361.044 371.649739 
L 362.16 371.879647 
L 363.276 371.941746 
L 364.392 371.599868 
L 365.508 371.71626 
L 366.624 371.648173 
L 367.74 371.962455 
L 368.856 371.724021 
L 369.972 371.821671 
L 372.204 371.686681 
L 373.32 371.855272 
L 374.436 371.643143 
L 376.668 372.054971 
L 377.784 371.741174 
L 378.9 371.951501 
L 380.016 371.696574 
L 381.132 371.883177 
L 382.248 371.546994 
L 383.364 371.854207 
L 384.48 371.744471 
L 386.712 371.997646 
L 387.828 371.603499 
L 388.944 371.903156 
L 390.06 371.6588 
L 391.176 372.159786 
L 392.292 371.825867 
L 393.408 371.727918 
L 394.524 371.975806 
L 395.64 371.827333 
L 396.756 372.061695 
L 397.872 371.917374 
L 398.988 371.573182 
L 400.104 372.014691 
L 401.22 371.888438 
L 402.336 372.064724 
L 404.568 372.116218 
L 405.684 371.992419 
L 407.916 372.263117 
L 409.032 371.687947 
L 410.148 372.207943 
L 411.264 371.608596 
L 412.38 372.161982 
L 413.496 372.260089 
L 415.728 372.139583 
L 416.844 372.185878 
L 417.96 371.883976 
L 419.076 372.227943 
L 421.308 371.865329 
L 422.424 372.431035 
L 423.54 371.887939 
L 424.656 371.995515 
L 425.772 372.308703 
L 426.888 372.298521 
L 428.004 372.053173 
L 429.12 372.254465 
L 431.352 371.926963 
L 432.468 372.212935 
L 433.584 372.731743 
L 434.7 371.97201 
L 435.816 372.350625 
L 438.048 372.217128 
L 441.396 372.352954 
L 443.628 372.584003 
L 444.744 372.146506 
L 445.86 371.96139 
L 446.976 372.407848 
L 448.092 372.123407 
L 449.208 372.066888 
L 450.324 372.575689 
L 451.44 371.925797 
L 452.556 372.429272 
L 453.672 372.229274 
L 454.788 372.368558 
L 455.904 371.771516 
L 457.02 372.271536 
L 458.136 372.016189 
L 459.252 372.522142 
L 460.368 372.295593 
L 461.484 372.499658 
L 462.6 372.291168 
L 463.716 372.505678 
L 464.832 372.143411 
L 468.18 372.021449 
L 469.296 372.468125 
L 470.412 372.224882 
L 471.528 372.628765 
L 473.76 372.172666 
L 475.992 372.645093 
L 477.108 372.026209 
L 478.224 372.345635 
L 479.34 372.03057 
L 480.456 372.424847 
L 481.572 372.652375 
L 483.804 372.415932 
L 484.92 372.721436 
L 486.036 372.137353 
L 487.152 372.760369 
L 488.268 372.332992 
L 491.616 372.981944 
L 492.732 372.448632 
L 493.848 372.122143 
L 494.964 372.70827 
L 496.08 372.505778 
L 497.196 372.558329 
L 498.312 372.495201 
L 499.428 372.725692 
L 501.66 372.519215 
L 502.776 371.996114 
L 503.892 372.368092 
L 505.008 372.515391 
L 506.124 372.465164 
L 507.24 372.276128 
L 508.356 372.963732 
L 509.472 372.685593 
L 510.588 373.03219 
L 511.704 372.084231 
L 512.82 372.47195 
L 513.936 372.694405 
L 516.168 373.623105 
L 517.284 372.807144 
L 518.4 372.969049 
L 519.516 373.387173 
L 520.632 372.032934 
L 521.748 373.038836 
L 522.864 373.134795 
L 523.98 373.014046 
L 525.096 373.671832 
L 526.212 373.844404 
L 527.328 374.223076 
L 528.444 373.574041 
L 529.56 373.308927 
L 530.676 372.817716 
L 531.792 373.609827 
L 532.908 373.993436 
L 534.024 373.90353 
L 535.14 374.49803 
L 536.256 374.962366 
L 537.372 374.161331 
L 538.488 374.716133 
L 539.604 373.287205 
L 540.72 374.688635 
L 541.836 373.22881 
L 542.952 373.420513 
L 544.068 374.693406 
L 545.184 374.324335 
L 546.3 375.232917 
L 547.416 370.921886 
L 548.532 376.042595 
L 549.648 371.634182 
L 550.764 373.941551 
L 551.88 373.890657 
L 552.996 374.451695 
L 554.112 376.378359 
L 555.228 373.530284 
L 556.344 374.51301 
L 557.46 373.212002 
L 558.576 374.334215 
L 559.692 375.668199 
L 560.808 375.516108 
L 561.924 371.960957 
L 563.04 375.611244 
L 564.156 375.330816 
L 565.272 373.428284 
L 566.388 370.621402 
L 567.504 372.860863 
L 568.62 378.529359 
L 569.736 375.747834 
L 570.852 375.377939 
L 571.968 374.780004 
L 574.2 376.447126 
L 574.2 376.447126 
" clip-path="url(#p5feade701d)" style="fill: none; stroke: #008000; stroke-width: 3; stroke-linecap: square"/>
   </g>
   <g id="line2d_2">
    <path d="M 105.48 326.624871 
L 106.596 328.538598 
L 107.712 330.407977 
L 108.828 331.812468 
L 109.944 333.604091 
L 111.06 334.621345 
L 112.176 336.050219 
L 113.292 336.714609 
L 114.408 337.533592 
L 115.524 338.281708 
L 116.64 339.012256 
L 117.756 339.017587 
L 118.872 339.372298 
L 119.988 339.79458 
L 121.104 339.972279 
L 122.22 339.499779 
L 123.336 339.254889 
L 124.452 338.960191 
L 125.568 337.999376 
L 126.684 337.343493 
" clip-path="url(#p5feade701d)" style="fill: none; stroke-dasharray: 11.1,4.8; stroke-dashoffset: 0; stroke: #800080; stroke-width: 3"/>
   </g>
   <g id="line2d_3">
    <path d="M 574.187399 369.249146 
L 573.075418 369.359943 
L 571.962823 369.938554 
L 570.849752 371.231044 
L 569.736 369.510679 
L 568.621839 371.513607 
L 567.507065 372.408913 
L 566.391883 369.875229 
L 565.276019 370.765825 
L 564.15961 370.871984 
L 563.042657 370.27013 
L 561.925158 371.227443 
L 560.807114 369.702059 
L 559.688662 370.096116 
L 558.569597 370.225947 
L 557.449919 370.560791 
L 556.3299 370.002071 
L 555.246527 370.769329 
L 554.125283 368.909731 
L 553.003561 370.055627 
L 551.88143 370.096283 
L 550.758687 368.894432 
L 549.635331 371.078004 
L 548.548893 370.419953 
L 547.424582 370.290534 
L 546.299659 368.360479 
L 545.174191 369.619952 
L 544.085914 369.112227 
L 542.959425 369.445533 
L 541.832322 369.243861 
L 540.704878 370.868815 
L 539.614422 370.146488 
L 538.48582 370.766459 
L 537.35681 368.716204 
L 536.264923 368.950772 
L 535.134823 371.876418 
L 534.041846 367.249236 
L 532.910725 369.073341 
L 531.779126 366.350646 
L 530.684651 367.176873 
L 529.552031 367.624594 
L 528.456465 369.889063 
L 527.322823 369.368572 
L 526.226509 369.708846 
L 525.091709 367.707332 
L 523.994372 368.540062 
L 522.858619 369.766875 
L 520.623554 369.638442 
L 519.524106 371.066866 
L 518.386309 367.470695 
L 517.285975 367.255817 
L 516.185301 367.644859 
L 515.045938 366.815629 
L 513.944174 368.392111 
L 512.803993 365.848417 
L 511.701071 368.228335 
L 510.598013 371.423102 
L 509.456061 369.446838 
L 508.351913 368.808422 
L 507.247152 371.614826 
L 506.142119 368.589805 
L 504.99826 373.317031 
L 502.785672 366.513428 
L 501.678527 368.173599 
L 500.532897 367.620836 
L 499.424799 369.564048 
L 498.316291 369.339337 
L 497.207239 368.532658 
L 496.097846 368.868018 
L 494.949696 367.88263 
L 493.839418 369.392187 
L 492.728458 367.947891 
L 491.61709 369.214118 
L 490.505381 366.727484 
L 489.393059 367.708103 
L 488.280329 367.595032 
L 487.16719 366.873053 
L 486.053506 366.887198 
L 484.900996 368.675648 
L 482.671312 366.77964 
L 481.555789 365.444747 
L 480.439789 368.804304 
L 478.206494 367.156625 
L 477.0892 366.932487 
L 476.009914 366.957884 
L 474.891667 368.419855 
L 473.772874 368.499425 
L 472.653604 368.404476 
L 470.413907 366.998632 
L 469.293343 366.833607 
L 468.172371 366.30753 
L 467.050922 365.261098 
L 465.928996 368.485522 
L 464.845351 366.567454 
L 463.722539 367.748326 
L 462.599251 366.9814 
L 461.475486 366.684195 
L 460.35138 366.97327 
L 459.265623 366.369042 
L 458.140496 364.903701 
L 457.014891 365.926977 
L 455.889015 365.849831 
L 454.801487 367.036287 
L 453.674657 366.898924 
L 452.547281 366.574984 
L 451.458459 364.074604 
L 450.330335 366.917906 
L 449.201802 364.06005 
L 448.072655 367.634895 
L 446.98213 366.426411 
L 445.852235 367.621238 
L 444.760824 366.312105 
L 443.630044 366.008385 
L 442.498717 366.569808 
L 441.406149 365.934953 
L 440.274006 365.820681 
L 439.180552 364.6794 
L 438.047591 364.64425 
L 436.914154 364.451294 
L 435.819406 364.761832 
L 434.685151 364.548236 
L 433.589517 365.780015 
L 432.454445 365.169975 
L 431.357994 363.735165 
L 429.124768 361.969724 
L 427.987925 364.255773 
L 426.889839 365.287954 
L 425.791413 364.036782 
L 424.653207 364.050188 
L 423.553964 363.625207 
L 422.415009 362.59458 
L 421.31488 363.37209 
L 420.175039 363.156844 
L 419.074161 362.11976 
L 417.972806 364.28099 
L 416.831671 362.698684 
L 415.729567 364.401619 
L 414.627054 364.618645 
L 413.484693 364.661217 
L 412.381362 363.081277 
L 411.277623 363.619495 
L 410.134036 362.907643 
L 409.02948 362.587233 
L 407.924446 362.791462 
L 406.81914 362.677933 
L 405.673919 363.827705 
L 404.567728 362.40237 
L 403.461264 362.706571 
L 402.354255 363.315556 
L 401.207399 363.121091 
L 400.099641 361.327164 
L 398.991474 359.769794 
L 397.882967 362.280156 
L 396.774051 361.427602 
L 395.625151 361.976977 
L 394.515418 363.080973 
L 393.405275 362.242382 
L 392.294793 362.513316 
L 391.183901 360.960481 
L 388.961029 361.219208 
L 387.8092 361.006423 
L 386.69681 361.957488 
L 385.583944 361.349493 
L 384.470736 361.297913 
L 382.243232 362.006839 
L 381.128799 361.438901 
L 380.014093 361.495355 
L 378.89891 360.278714 
L 377.783387 361.661492 
L 376.667591 360.508021 
L 375.551251 362.080756 
L 374.434638 360.985133 
L 373.317548 361.101046 
L 372.200186 360.394909 
L 371.082346 361.679873 
L 369.964235 360.71563 
L 368.845715 359.966655 
L 367.726786 360.948459 
L 366.607448 360.954503 
L 365.527753 361.157634 
L 364.407735 359.605951 
L 363.287307 360.507104 
L 361.045294 360.018495 
L 359.923777 360.478047 
L 358.801851 360.490656 
L 357.679652 359.073076 
L 356.597097 360.212651 
L 355.474013 359.862381 
L 354.350588 360.655462 
L 353.226891 360.387329 
L 352.102786 359.528981 
L 351.018391 360.307239 
L 349.893536 359.080402 
L 348.768341 360.808434 
L 347.642804 360.345722 
L 346.516792 360.104953 
L 345.430762 361.042379 
L 344.304068 360.971279 
L 343.177102 359.946822 
L 340.96213 360.060671 
L 339.834006 360.604088 
L 338.705473 360.881287 
L 337.616991 360.189494 
L 336.487777 358.639372 
L 335.358222 358.831111 
L 334.268719 359.799296 
L 333.138415 359.741174 
L 332.00777 359.254958 
L 330.917177 358.457154 
L 329.785919 360.705167 
L 328.694645 359.499635 
L 327.56257 360.347796 
L 325.337858 358.449547 
L 324.204829 359.628347 
L 323.111716 359.890211 
L 321.978006 358.295312 
L 320.884348 358.719193 
L 319.74982 358.192704 
L 318.655617 359.936412 
L 317.520341 357.097889 
L 316.384792 358.613662 
L 315.28943 358.527892 
L 314.153336 357.809507 
L 313.057294 359.065888 
L 310.823728 357.404176 
L 309.726732 358.507736 
L 308.58873 357.453727 
L 307.49119 357.786423 
L 306.352507 356.304216 
L 305.254217 356.832522 
L 304.114854 357.543794 
L 303.015951 356.241445 
L 301.875906 356.546388 
L 300.776254 357.293473 
L 299.676397 357.410464 
L 298.535399 356.180724 
L 297.434725 355.924618 
L 296.333914 354.378866 
L 295.191894 355.823767 
L 294.090335 353.689517 
L 292.947634 354.88751 
L 291.845461 355.542876 
L 290.742948 354.457957 
L 289.640094 352.789916 
L 288.496099 353.567787 
L 287.392632 353.336845 
L 286.288824 352.38585 
L 285.143807 351.806333 
L 284.039387 352.278907 
L 282.934626 350.906938 
L 281.788655 349.783436 
L 280.683281 349.140026 
L 279.577567 349.495361 
L 278.47158 348.634965 
L 277.324247 346.159121 
L 275.110706 345.518705 
L 274.003493 344.922535 
L 272.895803 343.638926 
L 271.746971 341.2584 
L 270.638736 340.987006 
L 269.530229 339.842863 
L 268.421381 338.414387 
L 267.312329 337.814605 
L 263.941987 333.201652 
L 262.831641 330.691703 
L 261.721022 329.748167 
L 260.610062 327.344979 
L 259.498762 326.731398 
L 258.38719 324.248055 
L 257.275345 322.955061 
L 256.121949 320.829734 
L 255.00956 320.48946 
L 253.896761 317.675288 
L 252.783622 316.042378 
L 251.670278 313.752619 
L 250.556594 313.012067 
L 249.44257 311.550789 
L 248.328272 309.679627 
L 247.213771 308.390248 
L 246.098861 307.681129 
L 244.983678 307.584317 
L 243.868223 305.992456 
L 242.752496 304.04886 
L 241.636359 304.450345 
L 240.520019 303.410027 
L 239.403406 303.47173 
L 238.286452 302.922001 
L 237.169226 303.809109 
L 236.051659 302.294327 
L 234.933888 302.528241 
L 233.815777 301.328092 
L 232.697325 301.916168 
L 231.5786 301.317439 
L 230.459603 301.924811 
L 229.340402 301.444549 
L 228.220792 301.903366 
L 227.142391 301.11942 
L 226.022304 300.090817 
L 224.901877 299.88581 
L 222.660204 296.203003 
L 221.538891 295.765731 
L 220.417374 293.124965 
L 219.295448 291.414298 
L 218.214868 289.549832 
L 214.846774 280.68588 
L 213.723554 277.592043 
L 212.600061 274.112693 
L 211.517846 271.703123 
L 210.39374 266.714625 
L 209.269294 263.989347 
L 208.144644 259.548927 
L 207.01972 256.064766 
L 204.810675 250.451325 
L 203.684867 245.700678 
L 202.558922 242.810843 
L 201.474255 240.650653 
L 200.347697 236.364966 
L 198.093696 233.262049 
L 197.008007 230.655366 
L 195.880359 230.287638 
L 194.752303 228.886486 
L 193.62411 228.310816 
L 192.537332 228.343641 
L 189.192125 231.803733 
L 188.062433 234.531804 
L 186.932674 236.153491 
L 185.844397 239.217049 
L 184.714025 242.782936 
L 182.494285 250.712492 
L 180.231702 257.078291 
L 179.141926 260.319934 
L 178.009919 262.881727 
L 176.919667 267.623619 
L 173.563288 276.870079 
L 170.204594 285.688318 
L 169.112571 287.352216 
L 167.978248 290.103374 
L 165.750812 292.885918 
L 164.615807 294.601531 
L 163.52249 294.999662 
L 162.386804 296.716339 
L 161.293078 296.93364 
L 160.156916 297.814003 
L 159.062645 297.840662 
L 156.831258 297.539333 
L 155.694074 298.115071 
L 154.598781 296.843287 
L 153.461257 296.341469 
L 152.365419 296.536919 
L 151.227349 296.022009 
L 150.131103 295.676904 
L 148.992352 295.49173 
L 147.895765 294.748269 
L 146.756538 294.806882 
L 145.659406 293.331092 
L 143.422093 292.482625 
L 142.324211 290.950573 
L 141.183792 291.050666 
L 140.085434 290.115477 
L 138.944504 289.895009 
L 137.845669 288.537464 
L 136.746629 286.459084 
L 135.605018 284.833819 
L 134.505502 284.737505 
L 132.263387 279.831965 
L 131.163156 278.142609 
L 128.91961 275.026786 
L 126.675111 269.087705 
L 124.472162 264.41595 
L 122.22579 256.949898 
L 121.123481 251.859433 
L 119.978566 247.629216 
L 118.875849 244.007477 
L 117.772722 238.845198 
L 116.627092 231.723119 
L 114.419954 220.204428 
L 113.273677 214.299464 
L 112.169495 204.597249 
L 111.065177 193.872592 
L 109.96062 186.022338 
L 108.813355 176.001008 
L 106.603152 152.496304 
L 106.603152 152.496304 
" clip-path="url(#p5feade701d)" style="fill: none; stroke-dasharray: 11.1,4.8; stroke-dashoffset: 0; stroke: #0000ff; stroke-width: 3"/>
   </g>
   <g id="line2d_4">
    <path d="M 105.48 258.45497 
L 106.596 264.344732 
L 107.712 270.149268 
L 108.828 275.694522 
L 109.944 280.861813 
L 111.06 285.700363 
L 112.176 290.40304 
L 113.292 294.962551 
L 114.408 299.040357 
L 115.524 303.142583 
L 116.64 306.751254 
L 117.756 310.1729 
L 118.872 313.031718 
L 119.988 316.054376 
L 121.104 318.778172 
L 122.22 320.689187 
L 123.336 323.139154 
L 124.452 325.331915 
L 125.568 326.929516 
L 126.684 328.890936 
" clip-path="url(#p5feade701d)" style="fill: none; stroke-dasharray: 11.1,4.8; stroke-dashoffset: 0; stroke: #ff0000; stroke-width: 3"/>
   </g>
   <g id="line2d_5">
    <path d="M 110.79379 -1 
L 111.06 7.977452 
L 112.176 42.925199 
L 113.292 73.685953 
L 114.408 101.88389 
L 115.524 127.602245 
L 116.64 150.297445 
L 117.756 170.702933 
L 118.872 189.339648 
L 119.988 205.552673 
L 121.104 220.197951 
L 122.22 233.025212 
L 123.336 245.050995 
L 124.452 255.140167 
L 125.568 264.430971 
L 126.684 272.735544 
" clip-path="url(#p5feade701d)" style="fill: none; stroke-dasharray: 11.1,4.8; stroke-dashoffset: 0; stroke: #008000; stroke-width: 3"/>
   </g>
   <g id="matplotlib.axis_1">
    <g id="xtick_1">
     <g id="line2d_6">
      <defs>
       <path id="m6fde193bcb" d="M 0 0 
L 0 3.5 
" style="stroke: #000000; stroke-width: 0.8"/>
      </defs>
      <g>
       <use xlink:href="#m6fde193bcb" x="72" y="378" style="stroke: #000000; stroke-width: 0.8"/>
      </g>
     </g>
     <g id="text_1">
      <!-- 450 -->
      <g transform="translate(54.82125 398.677188) scale(0.18 -0.18)">
       <defs>
        <path id="DejaVuSans-34" d="M 2419 4116 
L 825 1625 
L 2419 1625 
L 2419 4116 
z
M 2253 4666 
L 3047 4666 
L 3047 1625 
L 3713 1625 
L 3713 1100 
L 3047 1100 
L 3047 0 
L 2419 0 
L 2419 1100 
L 313 1100 
L 313 1709 
L 2253 4666 
z
" transform="scale(0.015625)"/>
        <path id="DejaVuSans-35" d="M 691 4666 
L 3169 4666 
L 3169 4134 
L 1269 4134 
L 1269 2991 
Q 1406 3038 1543 3061 
Q 1681 3084 1819 3084 
Q 2600 3084 3056 2656 
Q 3513 2228 3513 1497 
Q 3513 744 3044 326 
Q 2575 -91 1722 -91 
Q 1428 -91 1123 -41 
Q 819 9 494 109 
L 494 744 
Q 775 591 1075 516 
Q 1375 441 1709 441 
Q 2250 441 2565 725 
Q 2881 1009 2881 1497 
Q 2881 1984 2565 2268 
Q 2250 2553 1709 2553 
Q 1456 2553 1204 2497 
Q 953 2441 691 2322 
L 691 4666 
z
" transform="scale(0.015625)"/>
        <path id="DejaVuSans-30" d="M 2034 4250 
Q 1547 4250 1301 3770 
Q 1056 3291 1056 2328 
Q 1056 1369 1301 889 
Q 1547 409 2034 409 
Q 2525 409 2770 889 
Q 3016 1369 3016 2328 
Q 3016 3291 2770 3770 
Q 2525 4250 2034 4250 
z
M 2034 4750 
Q 2819 4750 3233 4129 
Q 3647 3509 3647 2328 
Q 3647 1150 3233 529 
Q 2819 -91 2034 -91 
Q 1250 -91 836 529 
Q 422 1150 422 2328 
Q 422 3509 836 4129 
Q 1250 4750 2034 4750 
z
" transform="scale(0.015625)"/>
       </defs>
       <use xlink:href="#DejaVuSans-34"/>
       <use xlink:href="#DejaVuSans-35" x="63.623047"/>
       <use xlink:href="#DejaVuSans-30" x="127.246094"/>
      </g>
     </g>
    </g>
    <g id="xtick_2">
     <g id="line2d_7">
      <g>
       <use xlink:href="#m6fde193bcb" x="127.8" y="378" style="stroke: #000000; stroke-width: 0.8"/>
      </g>
     </g>
     <g id="text_2">
      <!-- 500 -->
      <g transform="translate(110.62125 398.677188) scale(0.18 -0.18)">
       <use xlink:href="#DejaVuSans-35"/>
       <use xlink:href="#DejaVuSans-30" x="63.623047"/>
       <use xlink:href="#DejaVuSans-30" x="127.246094"/>
      </g>
     </g>
    </g>
    <g id="xtick_3">
     <g id="line2d_8">
      <g>
       <use xlink:href="#m6fde193bcb" x="183.6" y="378" style="stroke: #000000; stroke-width: 0.8"/>
      </g>
     </g>
     <g id="text_3">
      <!-- 550 -->
      <g transform="translate(166.42125 398.677188) scale(0.18 -0.18)">
       <use xlink:href="#DejaVuSans-35"/>
       <use xlink:href="#DejaVuSans-35" x="63.623047"/>
       <use xlink:href="#DejaVuSans-30" x="127.246094"/>
      </g>
     </g>
    </g>
    <g id="xtick_4">
     <g id="line2d_9">
      <g>
       <use xlink:href="#m6fde193bcb" x="239.4" y="378" style="stroke: #000000; stroke-width: 0.8"/>
      </g>
     </g>
     <g id="text_4">
      <!-- 600 -->
      <g transform="translate(222.22125 398.677188) scale(0.18 -0.18)">
       <defs>
        <path id="DejaVuSans-36" d="M 2113 2584 
Q 1688 2584 1439 2293 
Q 1191 2003 1191 1497 
Q 1191 994 1439 701 
Q 1688 409 2113 409 
Q 2538 409 2786 701 
Q 3034 994 3034 1497 
Q 3034 2003 2786 2293 
Q 2538 2584 2113 2584 
z
M 3366 4563 
L 3366 3988 
Q 3128 4100 2886 4159 
Q 2644 4219 2406 4219 
Q 1781 4219 1451 3797 
Q 1122 3375 1075 2522 
Q 1259 2794 1537 2939 
Q 1816 3084 2150 3084 
Q 2853 3084 3261 2657 
Q 3669 2231 3669 1497 
Q 3669 778 3244 343 
Q 2819 -91 2113 -91 
Q 1303 -91 875 529 
Q 447 1150 447 2328 
Q 447 3434 972 4092 
Q 1497 4750 2381 4750 
Q 2619 4750 2861 4703 
Q 3103 4656 3366 4563 
z
" transform="scale(0.015625)"/>
       </defs>
       <use xlink:href="#DejaVuSans-36"/>
       <use xlink:href="#DejaVuSans-30" x="63.623047"/>
       <use xlink:href="#DejaVuSans-30" x="127.246094"/>
      </g>
     </g>
    </g>
    <g id="xtick_5">
     <g id="line2d_10">
      <g>
       <use xlink:href="#m6fde193bcb" x="295.2" y="378" style="stroke: #000000; stroke-width: 0.8"/>
      </g>
     </g>
     <g id="text_5">
      <!-- 650 -->
      <g transform="translate(278.02125 398.677188) scale(0.18 -0.18)">
       <use xlink:href="#DejaVuSans-36"/>
       <use xlink:href="#DejaVuSans-35" x="63.623047"/>
       <use xlink:href="#DejaVuSans-30" x="127.246094"/>
      </g>
     </g>
    </g>
    <g id="xtick_6">
     <g id="line2d_11">
      <g>
       <use xlink:href="#m6fde193bcb" x="351" y="378" style="stroke: #000000; stroke-width: 0.8"/>
      </g>
     </g>
     <g id="text_6">
      <!-- 700 -->
      <g transform="translate(333.82125 398.677188) scale(0.18 -0.18)">
       <defs>
        <path id="DejaVuSans-37" d="M 525 4666 
L 3525 4666 
L 3525 4397 
L 1831 0 
L 1172 0 
L 2766 4134 
L 525 4134 
L 525 4666 
z
" transform="scale(0.015625)"/>
       </defs>
       <use xlink:href="#DejaVuSans-37"/>
       <use xlink:href="#DejaVuSans-30" x="63.623047"/>
       <use xlink:href="#DejaVuSans-30" x="127.246094"/>
      </g>
     </g>
    </g>
    <g id="xtick_7">
     <g id="line2d_12">
      <g>
       <use xlink:href="#m6fde193bcb" x="406.8" y="378" style="stroke: #000000; stroke-width: 0.8"/>
      </g>
     </g>
     <g id="text_7">
      <!-- 750 -->
      <g transform="translate(389.62125 398.677188) scale(0.18 -0.18)">
       <use xlink:href="#DejaVuSans-37"/>
       <use xlink:href="#DejaVuSans-35" x="63.623047"/>
       <use xlink:href="#DejaVuSans-30" x="127.246094"/>
      </g>
     </g>
    </g>
    <g id="xtick_8">
     <g id="line2d_13">
      <g>
       <use xlink:href="#m6fde193bcb" x="462.6" y="378" style="stroke: #000000; stroke-width: 0.8"/>
      </g>
     </g>
     <g id="text_8">
      <!-- 800 -->
      <g transform="translate(445.42125 398.677188) scale(0.18 -0.18)">
       <defs>
        <path id="DejaVuSans-38" d="M 2034 2216 
Q 1584 2216 1326 1975 
Q 1069 1734 1069 1313 
Q 1069 891 1326 650 
Q 1584 409 2034 409 
Q 2484 409 2743 651 
Q 3003 894 3003 1313 
Q 3003 1734 2745 1975 
Q 2488 2216 2034 2216 
z
M 1403 2484 
Q 997 2584 770 2862 
Q 544 3141 544 3541 
Q 544 4100 942 4425 
Q 1341 4750 2034 4750 
Q 2731 4750 3128 4425 
Q 3525 4100 3525 3541 
Q 3525 3141 3298 2862 
Q 3072 2584 2669 2484 
Q 3125 2378 3379 2068 
Q 3634 1759 3634 1313 
Q 3634 634 3220 271 
Q 2806 -91 2034 -91 
Q 1263 -91 848 271 
Q 434 634 434 1313 
Q 434 1759 690 2068 
Q 947 2378 1403 2484 
z
M 1172 3481 
Q 1172 3119 1398 2916 
Q 1625 2713 2034 2713 
Q 2441 2713 2670 2916 
Q 2900 3119 2900 3481 
Q 2900 3844 2670 4047 
Q 2441 4250 2034 4250 
Q 1625 4250 1398 4047 
Q 1172 3844 1172 3481 
z
" transform="scale(0.015625)"/>
       </defs>
       <use xlink:href="#DejaVuSans-38"/>
       <use xlink:href="#DejaVuSans-30" x="63.623047"/>
       <use xlink:href="#DejaVuSans-30" x="127.246094"/>
      </g>
     </g>
    </g>
    <g id="xtick_9">
     <g id="line2d_14">
      <g>
       <use xlink:href="#m6fde193bcb" x="518.4" y="378" style="stroke: #000000; stroke-width: 0.8"/>
      </g>
     </g>
     <g id="text_9">
      <!-- 850 -->
      <g transform="translate(501.22125 398.677188) scale(0.18 -0.18)">
       <use xlink:href="#DejaVuSans-38"/>
       <use xlink:href="#DejaVuSans-35" x="63.623047"/>
       <use xlink:href="#DejaVuSans-30" x="127.246094"/>
      </g>
     </g>
    </g>
    <g id="text_10">
     <!-- Wavelength (nm) -->
     <g transform="translate(201.904875 422.83325) scale(0.216 -0.216)">
      <defs>
       <path id="DejaVuSans-57" d="M 213 4666 
L 850 4666 
L 1831 722 
L 2809 4666 
L 3519 4666 
L 4500 722 
L 5478 4666 
L 6119 4666 
L 4947 0 
L 4153 0 
L 3169 4050 
L 2175 0 
L 1381 0 
L 213 4666 
z
" transform="scale(0.015625)"/>
       <path id="DejaVuSans-61" d="M 2194 1759 
Q 1497 1759 1228 1600 
Q 959 1441 959 1056 
Q 959 750 1161 570 
Q 1363 391 1709 391 
Q 2188 391 2477 730 
Q 2766 1069 2766 1631 
L 2766 1759 
L 2194 1759 
z
M 3341 1997 
L 3341 0 
L 2766 0 
L 2766 531 
Q 2569 213 2275 61 
Q 1981 -91 1556 -91 
Q 1019 -91 701 211 
Q 384 513 384 1019 
Q 384 1609 779 1909 
Q 1175 2209 1959 2209 
L 2766 2209 
L 2766 2266 
Q 2766 2663 2505 2880 
Q 2244 3097 1772 3097 
Q 1472 3097 1187 3025 
Q 903 2953 641 2809 
L 641 3341 
Q 956 3463 1253 3523 
Q 1550 3584 1831 3584 
Q 2591 3584 2966 3190 
Q 3341 2797 3341 1997 
z
" transform="scale(0.015625)"/>
       <path id="DejaVuSans-76" d="M 191 3500 
L 800 3500 
L 1894 563 
L 2988 3500 
L 3597 3500 
L 2284 0 
L 1503 0 
L 191 3500 
z
" transform="scale(0.015625)"/>
       <path id="DejaVuSans-65" d="M 3597 1894 
L 3597 1613 
L 953 1613 
Q 991 1019 1311 708 
Q 1631 397 2203 397 
Q 2534 397 2845 478 
Q 3156 559 3463 722 
L 3463 178 
Q 3153 47 2828 -22 
Q 2503 -91 2169 -91 
Q 1331 -91 842 396 
Q 353 884 353 1716 
Q 353 2575 817 3079 
Q 1281 3584 2069 3584 
Q 2775 3584 3186 3129 
Q 3597 2675 3597 1894 
z
M 3022 2063 
Q 3016 2534 2758 2815 
Q 2500 3097 2075 3097 
Q 1594 3097 1305 2825 
Q 1016 2553 972 2059 
L 3022 2063 
z
" transform="scale(0.015625)"/>
       <path id="DejaVuSans-6c" d="M 603 4863 
L 1178 4863 
L 1178 0 
L 603 0 
L 603 4863 
z
" transform="scale(0.015625)"/>
       <path id="DejaVuSans-6e" d="M 3513 2113 
L 3513 0 
L 2938 0 
L 2938 2094 
Q 2938 2591 2744 2837 
Q 2550 3084 2163 3084 
Q 1697 3084 1428 2787 
Q 1159 2491 1159 1978 
L 1159 0 
L 581 0 
L 581 3500 
L 1159 3500 
L 1159 2956 
Q 1366 3272 1645 3428 
Q 1925 3584 2291 3584 
Q 2894 3584 3203 3211 
Q 3513 2838 3513 2113 
z
" transform="scale(0.015625)"/>
       <path id="DejaVuSans-67" d="M 2906 1791 
Q 2906 2416 2648 2759 
Q 2391 3103 1925 3103 
Q 1463 3103 1205 2759 
Q 947 2416 947 1791 
Q 947 1169 1205 825 
Q 1463 481 1925 481 
Q 2391 481 2648 825 
Q 2906 1169 2906 1791 
z
M 3481 434 
Q 3481 -459 3084 -895 
Q 2688 -1331 1869 -1331 
Q 1566 -1331 1297 -1286 
Q 1028 -1241 775 -1147 
L 775 -588 
Q 1028 -725 1275 -790 
Q 1522 -856 1778 -856 
Q 2344 -856 2625 -561 
Q 2906 -266 2906 331 
L 2906 616 
Q 2728 306 2450 153 
Q 2172 0 1784 0 
Q 1141 0 747 490 
Q 353 981 353 1791 
Q 353 2603 747 3093 
Q 1141 3584 1784 3584 
Q 2172 3584 2450 3431 
Q 2728 3278 2906 2969 
L 2906 3500 
L 3481 3500 
L 3481 434 
z
" transform="scale(0.015625)"/>
       <path id="DejaVuSans-74" d="M 1172 4494 
L 1172 3500 
L 2356 3500 
L 2356 3053 
L 1172 3053 
L 1172 1153 
Q 1172 725 1289 603 
Q 1406 481 1766 481 
L 2356 481 
L 2356 0 
L 1766 0 
Q 1100 0 847 248 
Q 594 497 594 1153 
L 594 3053 
L 172 3053 
L 172 3500 
L 594 3500 
L 594 4494 
L 1172 4494 
z
" transform="scale(0.015625)"/>
       <path id="DejaVuSans-68" d="M 3513 2113 
L 3513 0 
L 2938 0 
L 2938 2094 
Q 2938 2591 2744 2837 
Q 2550 3084 2163 3084 
Q 1697 3084 1428 2787 
Q 1159 2491 1159 1978 
L 1159 0 
L 581 0 
L 581 4863 
L 1159 4863 
L 1159 2956 
Q 1366 3272 1645 3428 
Q 1925 3584 2291 3584 
Q 2894 3584 3203 3211 
Q 3513 2838 3513 2113 
z
" transform="scale(0.015625)"/>
       <path id="DejaVuSans-20" transform="scale(0.015625)"/>
       <path id="DejaVuSans-28" d="M 1984 4856 
Q 1566 4138 1362 3434 
Q 1159 2731 1159 2009 
Q 1159 1288 1364 580 
Q 1569 -128 1984 -844 
L 1484 -844 
Q 1016 -109 783 600 
Q 550 1309 550 2009 
Q 550 2706 781 3412 
Q 1013 4119 1484 4856 
L 1984 4856 
z
" transform="scale(0.015625)"/>
       <path id="DejaVuSans-6d" d="M 3328 2828 
Q 3544 3216 3844 3400 
Q 4144 3584 4550 3584 
Q 5097 3584 5394 3201 
Q 5691 2819 5691 2113 
L 5691 0 
L 5113 0 
L 5113 2094 
Q 5113 2597 4934 2840 
Q 4756 3084 4391 3084 
Q 3944 3084 3684 2787 
Q 3425 2491 3425 1978 
L 3425 0 
L 2847 0 
L 2847 2094 
Q 2847 2600 2669 2842 
Q 2491 3084 2119 3084 
Q 1678 3084 1418 2786 
Q 1159 2488 1159 1978 
L 1159 0 
L 581 0 
L 581 3500 
L 1159 3500 
L 1159 2956 
Q 1356 3278 1631 3431 
Q 1906 3584 2284 3584 
Q 2666 3584 2933 3390 
Q 3200 3197 3328 2828 
z
" transform="scale(0.015625)"/>
       <path id="DejaVuSans-29" d="M 513 4856 
L 1013 4856 
Q 1481 4119 1714 3412 
Q 1947 2706 1947 2009 
Q 1947 1309 1714 600 
Q 1481 -109 1013 -844 
L 513 -844 
Q 928 -128 1133 580 
Q 1338 1288 1338 2009 
Q 1338 2731 1133 3434 
Q 928 4138 513 4856 
z
" transform="scale(0.015625)"/>
      </defs>
      <use xlink:href="#DejaVuSans-57"/>
      <use xlink:href="#DejaVuSans-61" x="92.501953"/>
      <use xlink:href="#DejaVuSans-76" x="153.78125"/>
      <use xlink:href="#DejaVuSans-65" x="212.960938"/>
      <use xlink:href="#DejaVuSans-6c" x="274.484375"/>
      <use xlink:href="#DejaVuSans-65" x="302.267578"/>
      <use xlink:href="#DejaVuSans-6e" x="363.791016"/>
      <use xlink:href="#DejaVuSans-67" x="427.169922"/>
      <use xlink:href="#DejaVuSans-74" x="490.646484"/>
      <use xlink:href="#DejaVuSans-68" x="529.855469"/>
      <use xlink:href="#DejaVuSans-20" x="593.234375"/>
      <use xlink:href="#DejaVuSans-28" x="625.021484"/>
      <use xlink:href="#DejaVuSans-6e" x="664.035156"/>
      <use xlink:href="#DejaVuSans-6d" x="727.414062"/>
      <use xlink:href="#DejaVuSans-29" x="824.826172"/>
     </g>
    </g>
   </g>
   <g id="matplotlib.axis_2">
    <g id="ytick_1">
     <g id="line2d_15">
      <defs>
       <path id="mae6fd0c5ac" d="M 0 0 
L -3.5 0 
" style="stroke: #000000; stroke-width: 0.8"/>
      </defs>
      <g>
       <use xlink:href="#mae6fd0c5ac" x="72" y="372.863622" style="stroke: #000000; stroke-width: 0.8"/>
      </g>
     </g>
     <g id="text_11">
      <!-- 0.00 -->
      <g transform="translate(24.921875 379.702216) scale(0.18 -0.18)">
       <defs>
        <path id="DejaVuSans-2e" d="M 684 794 
L 1344 794 
L 1344 0 
L 684 0 
L 684 794 
z
" transform="scale(0.015625)"/>
       </defs>
       <use xlink:href="#DejaVuSans-30"/>
       <use xlink:href="#DejaVuSans-2e" x="63.623047"/>
       <use xlink:href="#DejaVuSans-30" x="95.410156"/>
       <use xlink:href="#DejaVuSans-30" x="159.033203"/>
      </g>
     </g>
    </g>
    <g id="ytick_2">
     <g id="line2d_16">
      <g>
       <use xlink:href="#mae6fd0c5ac" x="72" y="308.658898" style="stroke: #000000; stroke-width: 0.8"/>
      </g>
     </g>
     <g id="text_12">
      <!-- 0.05 -->
      <g transform="translate(24.921875 315.497491) scale(0.18 -0.18)">
       <use xlink:href="#DejaVuSans-30"/>
       <use xlink:href="#DejaVuSans-2e" x="63.623047"/>
       <use xlink:href="#DejaVuSans-30" x="95.410156"/>
       <use xlink:href="#DejaVuSans-35" x="159.033203"/>
      </g>
     </g>
    </g>
    <g id="ytick_3">
     <g id="line2d_17">
      <g>
       <use xlink:href="#mae6fd0c5ac" x="72" y="244.454173" style="stroke: #000000; stroke-width: 0.8"/>
      </g>
     </g>
     <g id="text_13">
      <!-- 0.10 -->
      <g transform="translate(24.921875 251.292767) scale(0.18 -0.18)">
       <defs>
        <path id="DejaVuSans-31" d="M 794 531 
L 1825 531 
L 1825 4091 
L 703 3866 
L 703 4441 
L 1819 4666 
L 2450 4666 
L 2450 531 
L 3481 531 
L 3481 0 
L 794 0 
L 794 531 
z
" transform="scale(0.015625)"/>
       </defs>
       <use xlink:href="#DejaVuSans-30"/>
       <use xlink:href="#DejaVuSans-2e" x="63.623047"/>
       <use xlink:href="#DejaVuSans-31" x="95.410156"/>
       <use xlink:href="#DejaVuSans-30" x="159.033203"/>
      </g>
     </g>
    </g>
    <g id="ytick_4">
     <g id="line2d_18">
      <g>
       <use xlink:href="#mae6fd0c5ac" x="72" y="180.249449" style="stroke: #000000; stroke-width: 0.8"/>
      </g>
     </g>
     <g id="text_14">
      <!-- 0.15 -->
      <g transform="translate(24.921875 187.088043) scale(0.18 -0.18)">
       <use xlink:href="#DejaVuSans-30"/>
       <use xlink:href="#DejaVuSans-2e" x="63.623047"/>
       <use xlink:href="#DejaVuSans-31" x="95.410156"/>
       <use xlink:href="#DejaVuSans-35" x="159.033203"/>
      </g>
     </g>
    </g>
    <g id="ytick_5">
     <g id="line2d_19">
      <g>
       <use xlink:href="#mae6fd0c5ac" x="72" y="116.044724" style="stroke: #000000; stroke-width: 0.8"/>
      </g>
     </g>
     <g id="text_15">
      <!-- 0.20 -->
      <g transform="translate(24.921875 122.883318) scale(0.18 -0.18)">
       <defs>
        <path id="DejaVuSans-32" d="M 1228 531 
L 3431 531 
L 3431 0 
L 469 0 
L 469 531 
Q 828 903 1448 1529 
Q 2069 2156 2228 2338 
Q 2531 2678 2651 2914 
Q 2772 3150 2772 3378 
Q 2772 3750 2511 3984 
Q 2250 4219 1831 4219 
Q 1534 4219 1204 4116 
Q 875 4013 500 3803 
L 500 4441 
Q 881 4594 1212 4672 
Q 1544 4750 1819 4750 
Q 2544 4750 2975 4387 
Q 3406 4025 3406 3419 
Q 3406 3131 3298 2873 
Q 3191 2616 2906 2266 
Q 2828 2175 2409 1742 
Q 1991 1309 1228 531 
z
" transform="scale(0.015625)"/>
       </defs>
       <use xlink:href="#DejaVuSans-30"/>
       <use xlink:href="#DejaVuSans-2e" x="63.623047"/>
       <use xlink:href="#DejaVuSans-32" x="95.410156"/>
       <use xlink:href="#DejaVuSans-30" x="159.033203"/>
      </g>
     </g>
    </g>
    <g id="ytick_6">
     <g id="line2d_20">
      <g>
       <use xlink:href="#mae6fd0c5ac" x="72" y="51.84" style="stroke: #000000; stroke-width: 0.8"/>
      </g>
     </g>
     <g id="text_16">
      <!-- 0.25 -->
      <g transform="translate(24.921875 58.678594) scale(0.18 -0.18)">
       <use xlink:href="#DejaVuSans-30"/>
       <use xlink:href="#DejaVuSans-2e" x="63.623047"/>
       <use xlink:href="#DejaVuSans-32" x="95.410156"/>
       <use xlink:href="#DejaVuSans-35" x="159.033203"/>
      </g>
     </g>
    </g>
    <g id="text_17">
     <!-- Absorption -->
     <g transform="translate(16.42975 273.38175) rotate(-90) scale(0.216 -0.216)">
      <defs>
       <path id="DejaVuSans-41" d="M 2188 4044 
L 1331 1722 
L 3047 1722 
L 2188 4044 
z
M 1831 4666 
L 2547 4666 
L 4325 0 
L 3669 0 
L 3244 1197 
L 1141 1197 
L 716 0 
L 50 0 
L 1831 4666 
z
" transform="scale(0.015625)"/>
       <path id="DejaVuSans-62" d="M 3116 1747 
Q 3116 2381 2855 2742 
Q 2594 3103 2138 3103 
Q 1681 3103 1420 2742 
Q 1159 2381 1159 1747 
Q 1159 1113 1420 752 
Q 1681 391 2138 391 
Q 2594 391 2855 752 
Q 3116 1113 3116 1747 
z
M 1159 2969 
Q 1341 3281 1617 3432 
Q 1894 3584 2278 3584 
Q 2916 3584 3314 3078 
Q 3713 2572 3713 1747 
Q 3713 922 3314 415 
Q 2916 -91 2278 -91 
Q 1894 -91 1617 61 
Q 1341 213 1159 525 
L 1159 0 
L 581 0 
L 581 4863 
L 1159 4863 
L 1159 2969 
z
" transform="scale(0.015625)"/>
       <path id="DejaVuSans-73" d="M 2834 3397 
L 2834 2853 
Q 2591 2978 2328 3040 
Q 2066 3103 1784 3103 
Q 1356 3103 1142 2972 
Q 928 2841 928 2578 
Q 928 2378 1081 2264 
Q 1234 2150 1697 2047 
L 1894 2003 
Q 2506 1872 2764 1633 
Q 3022 1394 3022 966 
Q 3022 478 2636 193 
Q 2250 -91 1575 -91 
Q 1294 -91 989 -36 
Q 684 19 347 128 
L 347 722 
Q 666 556 975 473 
Q 1284 391 1588 391 
Q 1994 391 2212 530 
Q 2431 669 2431 922 
Q 2431 1156 2273 1281 
Q 2116 1406 1581 1522 
L 1381 1569 
Q 847 1681 609 1914 
Q 372 2147 372 2553 
Q 372 3047 722 3315 
Q 1072 3584 1716 3584 
Q 2034 3584 2315 3537 
Q 2597 3491 2834 3397 
z
" transform="scale(0.015625)"/>
       <path id="DejaVuSans-6f" d="M 1959 3097 
Q 1497 3097 1228 2736 
Q 959 2375 959 1747 
Q 959 1119 1226 758 
Q 1494 397 1959 397 
Q 2419 397 2687 759 
Q 2956 1122 2956 1747 
Q 2956 2369 2687 2733 
Q 2419 3097 1959 3097 
z
M 1959 3584 
Q 2709 3584 3137 3096 
Q 3566 2609 3566 1747 
Q 3566 888 3137 398 
Q 2709 -91 1959 -91 
Q 1206 -91 779 398 
Q 353 888 353 1747 
Q 353 2609 779 3096 
Q 1206 3584 1959 3584 
z
" transform="scale(0.015625)"/>
       <path id="DejaVuSans-72" d="M 2631 2963 
Q 2534 3019 2420 3045 
Q 2306 3072 2169 3072 
Q 1681 3072 1420 2755 
Q 1159 2438 1159 1844 
L 1159 0 
L 581 0 
L 581 3500 
L 1159 3500 
L 1159 2956 
Q 1341 3275 1631 3429 
Q 1922 3584 2338 3584 
Q 2397 3584 2469 3576 
Q 2541 3569 2628 3553 
L 2631 2963 
z
" transform="scale(0.015625)"/>
       <path id="DejaVuSans-70" d="M 1159 525 
L 1159 -1331 
L 581 -1331 
L 581 3500 
L 1159 3500 
L 1159 2969 
Q 1341 3281 1617 3432 
Q 1894 3584 2278 3584 
Q 2916 3584 3314 3078 
Q 3713 2572 3713 1747 
Q 3713 922 3314 415 
Q 2916 -91 2278 -91 
Q 1894 -91 1617 61 
Q 1341 213 1159 525 
z
M 3116 1747 
Q 3116 2381 2855 2742 
Q 2594 3103 2138 3103 
Q 1681 3103 1420 2742 
Q 1159 2381 1159 1747 
Q 1159 1113 1420 752 
Q 1681 391 2138 391 
Q 2594 391 2855 752 
Q 3116 1113 3116 1747 
z
" transform="scale(0.015625)"/>
       <path id="DejaVuSans-69" d="M 603 3500 
L 1178 3500 
L 1178 0 
L 603 0 
L 603 3500 
z
M 603 4863 
L 1178 4863 
L 1178 4134 
L 603 4134 
L 603 4863 
z
" transform="scale(0.015625)"/>
      </defs>
      <use xlink:href="#DejaVuSans-41"/>
      <use xlink:href="#DejaVuSans-62" x="68.408203"/>
      <use xlink:href="#DejaVuSans-73" x="131.884766"/>
      <use xlink:href="#DejaVuSans-6f" x="183.984375"/>
      <use xlink:href="#DejaVuSans-72" x="245.166016"/>
      <use xlink:href="#DejaVuSans-70" x="286.279297"/>
      <use xlink:href="#DejaVuSans-74" x="349.755859"/>
      <use xlink:href="#DejaVuSans-69" x="388.964844"/>
      <use xlink:href="#DejaVuSans-6f" x="416.748047"/>
      <use xlink:href="#DejaVuSans-6e" x="477.929688"/>
     </g>
    </g>
   </g>
   <g id="line2d_21">
    <path d="M 574.187399 369.249146 
L 573.075418 369.359943 
L 571.962823 369.938554 
L 570.849752 371.231044 
L 569.736 369.510679 
L 568.621839 371.513607 
L 567.507065 372.408913 
L 566.391883 369.875229 
L 565.276019 370.765825 
L 564.15961 370.871984 
L 563.042657 370.27013 
L 561.925158 371.227443 
L 560.807114 369.702059 
L 559.688662 370.096116 
L 558.569597 370.225947 
L 557.449919 370.560791 
L 556.3299 370.002071 
L 555.246527 370.769329 
L 554.125283 368.909731 
L 553.003561 370.055627 
L 551.88143 370.096283 
L 550.758687 368.894432 
L 549.635331 371.078004 
L 548.548893 370.419953 
L 547.424582 370.290534 
L 546.299659 368.360479 
L 545.174191 369.619952 
L 544.085914 369.112227 
L 542.959425 369.445533 
L 541.832322 369.243861 
L 540.704878 370.868815 
L 539.614422 370.146488 
L 538.48582 370.766459 
L 537.35681 368.716204 
L 536.264923 368.950772 
L 535.134823 371.876418 
L 534.041846 367.249236 
L 532.910725 369.073341 
L 531.779126 366.350646 
L 530.684651 367.176873 
L 529.552031 367.624594 
L 528.456465 369.889063 
L 527.322823 369.368572 
L 526.226509 369.708846 
L 525.091709 367.707332 
L 523.994372 368.540062 
L 522.858619 369.766875 
L 520.623554 369.638442 
L 519.524106 371.066866 
L 518.386309 367.470695 
L 517.285975 367.255817 
L 516.185301 367.644859 
L 515.045938 366.815629 
L 513.944174 368.392111 
L 512.803993 365.848417 
L 511.701071 368.228335 
L 510.598013 371.423102 
L 509.456061 369.446838 
L 508.351913 368.808422 
L 507.247152 371.614826 
L 506.142119 368.589805 
L 504.99826 373.317031 
L 502.785672 366.513428 
L 501.678527 368.173599 
L 500.532897 367.620836 
L 499.424799 369.564048 
L 498.316291 369.339337 
L 497.207239 368.532658 
L 496.097846 368.868018 
L 494.949696 367.88263 
L 493.839418 369.392187 
L 492.728458 367.947891 
L 491.61709 369.214118 
L 490.505381 366.727484 
L 489.393059 367.708103 
L 488.280329 367.595032 
L 487.16719 366.873053 
L 486.053506 366.887198 
L 484.900996 368.675648 
L 482.671312 366.77964 
L 481.555789 365.444747 
L 480.439789 368.804304 
L 478.206494 367.156625 
L 477.0892 366.932487 
L 476.009914 366.957884 
L 474.891667 368.419855 
L 473.772874 368.499425 
L 472.653604 368.404476 
L 470.413907 366.998632 
L 469.293343 366.833607 
L 468.172371 366.30753 
L 467.050922 365.261098 
L 465.928996 368.485522 
L 464.845351 366.567454 
L 463.722539 367.748326 
L 462.599251 366.9814 
L 461.475486 366.684195 
L 460.35138 366.97327 
L 459.265623 366.369042 
L 458.140496 364.903701 
L 457.014891 365.926977 
L 455.889015 365.849831 
L 454.801487 367.036287 
L 453.674657 366.898924 
L 452.547281 366.574984 
L 451.458459 364.074604 
L 450.330335 366.917906 
L 449.201802 364.06005 
L 448.072655 367.634895 
L 446.98213 366.426411 
L 445.852235 367.621238 
L 444.760824 366.312105 
L 443.630044 366.008385 
L 442.498717 366.569808 
L 441.406149 365.934953 
L 440.274006 365.820681 
L 439.180552 364.6794 
L 438.047591 364.64425 
L 436.914154 364.451294 
L 435.819406 364.761832 
L 434.685151 364.548236 
L 433.589517 365.780015 
L 432.454445 365.169975 
L 431.357994 363.735165 
L 429.124768 361.969724 
L 427.987925 364.255773 
L 426.889839 365.287954 
L 425.791413 364.036782 
L 424.653207 364.050188 
L 423.553964 363.625207 
L 422.415009 362.59458 
L 421.31488 363.37209 
L 420.175039 363.156844 
L 419.074161 362.11976 
L 417.972806 364.28099 
L 416.831671 362.698684 
L 415.729567 364.401619 
L 414.627054 364.618645 
L 413.484693 364.661217 
L 412.381362 363.081277 
L 411.277623 363.619495 
L 410.134036 362.907643 
L 409.02948 362.587233 
L 407.924446 362.791462 
L 406.81914 362.677933 
L 405.673919 363.827705 
L 404.567728 362.40237 
L 403.461264 362.706571 
L 402.354255 363.315556 
L 401.207399 363.121091 
L 400.099641 361.327164 
L 398.991474 359.769794 
L 397.882967 362.280156 
L 396.774051 361.427602 
L 395.625151 361.976977 
L 394.515418 363.080973 
L 393.405275 362.242382 
L 392.294793 362.513316 
L 391.183901 360.960481 
L 388.961029 361.219208 
L 387.8092 361.006423 
L 386.69681 361.957488 
L 385.583944 361.349493 
L 384.470736 361.297913 
L 382.243232 362.006839 
L 381.128799 361.438901 
L 380.014093 361.495355 
L 378.89891 360.278714 
L 377.783387 361.661492 
L 376.667591 360.508021 
L 375.551251 362.080756 
L 374.434638 360.985133 
L 373.317548 361.101046 
L 372.200186 360.394909 
L 371.082346 361.679873 
L 369.964235 360.71563 
L 368.845715 359.966655 
L 367.726786 360.948459 
L 366.607448 360.954503 
L 365.527753 361.157634 
L 364.407735 359.605951 
L 363.287307 360.507104 
L 361.045294 360.018495 
L 359.923777 360.478047 
L 358.801851 360.490656 
L 357.679652 359.073076 
L 356.597097 360.212651 
L 355.474013 359.862381 
L 354.350588 360.655462 
L 353.226891 360.387329 
L 352.102786 359.528981 
L 351.018391 360.307239 
L 349.893536 359.080402 
L 348.768341 360.808434 
L 347.642804 360.345722 
L 346.516792 360.104953 
L 345.430762 361.042379 
L 344.304068 360.971279 
L 343.177102 359.946822 
L 340.96213 360.060671 
L 339.834006 360.604088 
L 338.705473 360.881287 
L 337.616991 360.189494 
L 336.487777 358.639372 
L 335.358222 358.831111 
L 334.268719 359.799296 
L 333.138415 359.741174 
L 332.00777 359.254958 
L 330.917177 358.457154 
L 329.785919 360.705167 
L 328.694645 359.499635 
L 327.56257 360.347796 
L 325.337858 358.449547 
L 324.204829 359.628347 
L 323.111716 359.890211 
L 321.978006 358.295312 
L 320.884348 358.719193 
L 319.74982 358.192704 
L 318.655617 359.936412 
L 317.520341 357.097889 
L 316.384792 358.613662 
L 315.28943 358.527892 
L 314.153336 357.809507 
L 313.057294 359.065888 
L 310.823728 357.404176 
L 309.726732 358.507736 
L 308.58873 357.453727 
L 307.49119 357.786423 
L 306.352507 356.304216 
L 305.254217 356.832522 
L 304.114854 357.543794 
L 303.015951 356.241445 
L 301.875906 356.546388 
L 300.776254 357.293473 
L 299.676397 357.410464 
L 298.535399 356.180724 
L 297.434725 355.924618 
L 296.333914 354.378866 
L 295.191894 355.823767 
L 294.090335 353.689517 
L 292.947634 354.88751 
L 291.845461 355.542876 
L 290.742948 354.457957 
L 289.640094 352.789916 
L 288.496099 353.567787 
L 287.392632 353.336845 
L 286.288824 352.38585 
L 285.143807 351.806333 
L 284.039387 352.278907 
L 282.934626 350.906938 
L 281.788655 349.783436 
L 280.683281 349.140026 
L 279.577567 349.495361 
L 278.47158 348.634965 
L 277.324247 346.159121 
L 275.110706 345.518705 
L 274.003493 344.922535 
L 272.895803 343.638926 
L 271.746971 341.2584 
L 270.638736 340.987006 
L 269.530229 339.842863 
L 268.421381 338.414387 
L 267.312329 337.814605 
L 263.941987 333.201652 
L 262.831641 330.691703 
L 261.721022 329.748167 
L 260.610062 327.344979 
L 259.498762 326.731398 
L 258.38719 324.248055 
L 257.275345 322.955061 
L 256.121949 320.829734 
L 255.00956 320.48946 
L 253.896761 317.675288 
L 252.783622 316.042378 
L 251.670278 313.752619 
L 250.556594 313.012067 
L 249.44257 311.550789 
L 248.328272 309.679627 
L 247.213771 308.390248 
L 246.098861 307.681129 
L 244.983678 307.584317 
L 243.868223 305.992456 
L 242.752496 304.04886 
L 241.636359 304.450345 
L 240.520019 303.410027 
L 239.403406 303.47173 
L 238.286452 302.922001 
L 237.169226 303.809109 
L 236.051659 302.294327 
L 234.933888 302.528241 
L 233.815777 301.328092 
L 232.697325 301.916168 
L 231.5786 301.317439 
L 230.459603 301.924811 
L 229.340402 301.444549 
L 228.220792 301.903366 
L 227.142391 301.11942 
L 226.022304 300.090817 
L 224.901877 299.88581 
L 222.660204 296.203003 
L 221.538891 295.765731 
L 220.417374 293.124965 
L 219.295448 291.414298 
L 218.214868 289.549832 
L 214.846774 280.68588 
L 213.723554 277.592043 
L 212.600061 274.112693 
L 211.517846 271.703123 
L 210.39374 266.714625 
L 209.269294 263.989347 
L 208.144644 259.548927 
L 207.01972 256.064766 
L 204.810675 250.451325 
L 203.684867 245.700678 
L 202.558922 242.810843 
L 201.474255 240.650653 
L 200.347697 236.364966 
L 198.093696 233.262049 
L 197.008007 230.655366 
L 195.880359 230.287638 
L 194.752303 228.886486 
L 193.62411 228.310816 
L 192.537332 228.343641 
L 189.192125 231.803733 
L 188.062433 234.531804 
L 186.932674 236.153491 
L 185.844397 239.217049 
L 184.714025 242.782936 
L 182.494285 250.712492 
L 180.231702 257.078291 
L 179.141926 260.319934 
L 178.009919 262.881727 
L 176.919667 267.623619 
L 173.563288 276.870079 
L 170.204594 285.688318 
L 169.112571 287.352216 
L 167.978248 290.103374 
L 165.750812 292.885918 
L 164.615807 294.601531 
L 163.52249 294.999662 
L 162.386804 296.716339 
L 161.293078 296.93364 
L 160.156916 297.814003 
L 159.062645 297.840662 
L 156.831258 297.539333 
L 155.694074 298.115071 
L 154.598781 296.843287 
L 153.461257 296.341469 
L 152.365419 296.536919 
L 151.227349 296.022009 
L 150.131103 295.676904 
L 148.992352 295.49173 
L 147.895765 294.748269 
L 146.756538 294.806882 
L 145.659406 293.331092 
L 143.422093 292.482625 
L 142.324211 290.950573 
L 141.183792 291.050666 
L 140.085434 290.115477 
L 138.944504 289.895009 
L 137.845669 288.537464 
L 136.746629 286.459084 
L 135.605018 284.833819 
L 134.505502 284.737505 
L 132.263387 279.831965 
L 131.163156 278.142609 
L 128.91961 275.026786 
L 128.91961 275.026786 
" clip-path="url(#p5feade701d)" style="fill: none; stroke: #0000ff; stroke-width: 3; stroke-linecap: square"/>
   </g>
   <g id="patch_3">
    <path d="M 72 378 
L 72 51.84 
" style="fill: none; stroke: #000000; stroke-width: 0.8; stroke-linejoin: miter; stroke-linecap: square"/>
   </g>
   <g id="patch_4">
    <path d="M 518.4 378 
L 518.4 51.84 
" style="fill: none; stroke: #000000; stroke-width: 0.8; stroke-linejoin: miter; stroke-linecap: square"/>
   </g>
   <g id="patch_5">
    <path d="M 72 378 
L 518.4 378 
" style="fill: none; stroke: #000000; stroke-width: 0.8; stroke-linejoin: miter; stroke-linecap: square"/>
   </g>
   <g id="patch_6">
    <path d="M 72 51.84 
L 518.4 51.84 
" style="fill: none; stroke: #000000; stroke-width: 0.8; stroke-linejoin: miter; stroke-linecap: square"/>
   </g>
   <g id="line2d_22">
    <path d="M 127.8 329.670337 
L 128.916 331.790392 
L 130.032 332.618777 
L 131.148 333.590075 
L 132.264 334.243652 
L 134.496 335.977635 
L 135.612 336.305643 
L 137.844 336.673929 
L 138.96 336.456889 
L 140.076 336.590785 
L 141.192 335.512221 
L 142.308 335.392289 
L 143.424 334.506206 
L 144.54 334.093441 
L 146.772 331.845241 
L 147.888 330.359767 
L 149.004 328.656022 
L 150.12 327.343357 
L 152.352 323.86726 
L 157.932 315.117536 
L 160.164 312.216875 
L 161.28 311.388553 
L 162.396 310.007544 
L 163.512 309.712126 
L 164.628 309.158235 
L 165.744 308.880445 
L 166.86 308.97055 
L 167.976 308.766691 
L 171.324 310.894198 
L 173.556 313.07346 
L 174.672 314.490087 
L 175.788 315.443124 
L 176.904 317.052469 
L 178.02 318.050688 
L 179.136 319.375101 
L 180.252 320.90676 
L 181.368 322.196827 
L 182.484 323.921912 
L 183.6 324.421897 
L 184.716 325.796931 
L 185.832 326.668675 
L 186.948 327.098048 
L 188.064 328.26609 
L 189.18 328.576461 
L 191.412 329.903137 
L 192.528 329.8416 
L 194.76 330.175354 
L 195.876 330.057964 
L 199.224 330.286262 
L 200.34 330.14162 
L 202.572 330.680055 
L 203.688 330.612003 
L 204.804 331.008647 
L 205.92 331.265245 
L 208.152 332.148475 
L 209.268 332.977328 
L 211.5 334.194809 
L 213.732 335.889556 
L 214.848 336.882197 
L 215.964 337.584516 
L 217.08 338.823401 
L 218.196 339.661875 
L 220.428 342.166562 
L 221.544 343.028712 
L 222.66 344.033101 
L 224.892 345.862015 
L 227.124 347.705851 
L 228.24 349.000646 
L 229.356 349.480492 
L 230.472 350.617885 
L 232.704 351.637404 
L 233.82 352.366158 
L 234.936 352.819412 
L 236.052 353.503401 
L 237.168 353.902842 
L 238.284 354.42714 
L 241.632 355.445693 
L 242.748 355.187018 
L 243.864 355.589094 
L 244.98 355.427071 
L 246.096 355.711139 
L 247.212 356.227884 
L 248.328 355.827844 
L 249.444 356.060223 
L 251.676 355.921431 
L 257.256 356.314522 
L 258.372 356.611759 
L 259.488 356.633182 
L 260.604 356.466635 
L 261.72 356.503295 
L 262.836 356.927136 
L 263.952 357.007885 
L 268.416 358.250102 
L 270.648 358.809261 
L 271.764 359.207816 
L 275.112 360.081997 
L 276.228 360.63015 
L 281.808 362.137618 
L 282.924 362.623257 
L 284.04 362.539491 
L 285.156 363.231116 
L 286.272 363.423041 
L 287.388 363.920228 
L 288.504 363.911176 
L 290.736 364.389976 
L 291.852 364.481968 
L 292.968 365.009701 
L 294.084 365.199902 
L 295.2 365.273262 
L 296.316 365.63884 
L 297.432 365.499515 
L 298.548 365.869254 
L 300.78 366.1062 
L 301.896 366.486027 
L 303.012 366.460641 
L 304.128 366.943271 
L 305.244 366.84651 
L 306.36 366.947437 
L 307.476 366.682716 
L 308.592 367.141613 
L 309.708 367.10541 
L 315.288 367.865324 
L 316.404 367.454484 
L 317.52 368.003287 
L 318.636 367.778316 
L 319.752 368.114666 
L 321.984 368.145608 
L 323.1 368.385242 
L 324.216 368.200281 
L 325.332 368.375927 
L 328.68 368.370565 
L 329.796 368.422669 
L 330.912 368.710142 
L 332.028 368.757626 
L 333.144 368.592953 
L 334.26 368.913012 
L 336.492 368.740314 
L 339.84 368.935842 
L 342.072 369.023306 
L 343.188 368.939156 
L 345.42 369.245333 
L 346.536 368.925398 
L 347.652 369.238575 
L 348.768 369.022402 
L 349.884 369.393257 
L 353.232 369.261592 
L 354.348 369.340977 
L 355.464 369.252426 
L 358.812 369.578693 
L 359.928 369.424497 
L 361.044 369.768346 
L 362.16 369.393692 
L 363.276 369.666457 
L 365.508 369.355126 
L 367.74 369.782819 
L 371.088 369.713693 
L 372.204 369.757115 
L 374.436 369.496902 
L 376.668 369.837966 
L 377.784 369.961175 
L 378.9 369.706238 
L 381.132 369.568428 
L 382.248 369.701258 
L 384.48 369.748959 
L 385.596 369.425567 
L 386.712 369.971834 
L 388.944 369.813635 
L 390.06 369.562042 
L 391.176 369.981089 
L 392.292 369.651948 
L 393.408 369.740402 
L 394.524 369.471787 
L 395.64 369.878002 
L 396.756 369.965886 
L 398.988 369.802204 
L 400.104 370.022853 
L 401.22 369.447373 
L 402.336 369.763365 
L 403.452 369.797859 
L 404.568 370.032374 
L 405.684 369.94948 
L 406.8 370.158012 
L 410.148 369.657865 
L 412.38 369.95232 
L 413.496 369.764669 
L 414.612 370.064112 
L 415.728 370.18824 
L 416.844 369.711821 
L 417.96 369.65733 
L 419.076 370.061339 
L 420.192 369.89548 
L 421.308 370.026995 
L 422.424 369.952621 
L 423.54 370.191847 
L 424.656 369.9441 
L 425.772 370.130622 
L 426.888 369.841408 
L 428.004 370.165127 
L 429.12 369.89391 
L 431.352 369.913659 
L 432.468 369.756714 
L 433.584 369.93284 
L 434.7 370.378887 
L 435.816 369.79455 
L 438.048 369.938152 
L 439.164 370.185368 
L 440.28 369.954659 
L 441.396 369.924385 
L 443.628 370.412742 
L 444.744 369.952353 
L 445.86 370.21035 
L 448.092 369.797391 
L 449.208 370.05566 
L 450.324 369.861727 
L 451.44 370.13129 
L 452.556 370.235165 
L 453.672 369.979351 
L 454.788 369.992081 
L 455.904 370.310871 
L 457.02 369.946874 
L 458.136 370.123574 
L 459.252 369.818147 
L 460.368 370.378787 
L 461.484 370.083522 
L 463.716 370.315713 
L 464.832 370.024456 
L 467.064 369.989141 
L 468.18 370.466325 
L 469.296 370.281084 
L 472.644 370.274338 
L 473.76 370.127582 
L 474.876 370.485687 
L 477.108 370.067019 
L 478.224 370.287061 
L 479.34 370.171272 
L 480.456 370.691416 
L 481.572 370.024924 
L 484.92 370.33705 
L 486.036 370.283956 
L 487.152 370.446228 
L 488.268 369.758117 
L 489.384 370.158881 
L 490.5 370.126781 
L 491.616 370.222507 
L 492.732 370.096817 
L 493.848 370.091539 
L 494.964 370.281218 
L 496.08 370.056428 
L 498.312 370.235465 
L 499.428 370.236234 
L 500.544 370.395782 
L 501.66 369.401419 
L 502.776 370.079646 
L 505.008 369.370914 
L 506.124 369.565887 
L 507.24 370.28823 
L 508.356 370.296545 
L 509.472 369.984296 
L 510.588 370.197458 
L 511.704 369.369007 
L 512.82 370.800257 
L 513.936 369.801034 
L 515.052 369.393425 
L 516.168 369.863432 
L 517.284 370.092374 
L 518.4 370.532954 
L 519.516 370.23787 
L 520.632 369.585882 
L 521.748 370.000969 
L 522.864 368.946387 
L 523.98 369.562209 
L 525.096 370.016605 
L 526.212 369.189023 
L 527.328 368.769949 
L 528.444 369.265339 
L 529.56 368.534668 
L 530.676 369.765772 
L 531.792 369.758786 
L 532.908 369.289259 
L 534.024 370.161386 
L 535.14 369.025782 
L 536.256 369.616642 
L 537.372 369.97738 
L 538.488 367.656368 
L 539.604 368.937148 
L 540.72 369.015909 
L 541.836 371.048591 
L 542.952 367.862942 
L 544.068 368.091668 
L 545.184 369.607481 
L 546.3 367.906844 
L 547.416 367.995206 
L 548.532 370.551312 
L 549.648 368.244692 
L 550.764 371.407105 
L 551.88 369.571137 
L 552.996 368.429002 
L 554.112 368.967542 
L 555.228 368.662318 
L 556.344 368.204035 
L 557.46 369.838968 
L 558.576 370.575177 
L 559.692 367.916402 
L 560.808 369.980621 
L 561.924 370.460516 
L 563.04 370.362527 
L 564.156 371.218776 
L 565.272 371.023179 
L 566.388 372.313361 
L 567.504 374.614548 
L 568.62 371.549792 
L 569.736 368.002382 
L 570.852 369.135083 
L 571.968 367.82967 
L 573.084 370.836055 
L 574.2 365.250046 
L 574.2 365.250046 
" clip-path="url(#p5feade701d)" style="fill: none; stroke: #ff0000; stroke-width: 3; stroke-linecap: square"/>
   </g>
   <g id="line2d_23">
    <path d="M 127.8 336.414097 
L 130.032 334.131069 
L 131.148 332.442146 
L 132.264 331.381593 
L 133.38 329.045753 
L 134.496 327.399435 
L 140.076 315.752127 
L 141.192 312.90289 
L 144.54 306.361049 
L 145.656 303.439579 
L 146.772 302.831519 
L 147.888 301.319362 
L 149.004 300.195756 
L 150.12 299.694446 
L 151.236 299.457178 
L 153.468 300.369004 
L 154.584 301.784216 
L 155.7 302.855001 
L 160.164 311.967821 
L 162.396 317.785737 
L 163.512 319.999752 
L 164.628 323.146894 
L 165.744 325.761848 
L 166.86 327.922616 
L 167.976 330.585071 
L 170.208 334.145607 
L 171.324 335.5312 
L 173.556 337.214386 
L 174.672 337.794639 
L 176.904 338.092499 
L 178.02 337.636744 
L 179.136 337.621023 
L 180.252 336.32346 
L 181.368 336.21893 
L 182.484 334.642456 
L 183.6 333.980687 
L 185.832 331.732601 
L 186.948 331.132213 
L 188.064 329.496615 
L 189.18 329.279639 
L 190.296 328.327373 
L 192.528 327.171941 
L 194.76 327.326007 
L 195.876 327.264724 
L 196.992 328.143184 
L 198.108 328.602981 
L 199.224 329.391088 
L 200.34 330.382293 
L 201.456 331.690199 
L 202.572 332.648536 
L 205.92 337.50434 
L 207.036 338.474103 
L 208.152 339.702691 
L 209.268 341.130866 
L 210.384 342.250002 
L 211.5 343.098 
L 212.616 344.455191 
L 213.732 345.506139 
L 214.848 345.526247 
L 215.964 346.24657 
L 217.08 346.219059 
L 218.196 346.444672 
L 219.312 346.032213 
L 220.428 345.427303 
L 221.544 345.187447 
L 222.66 344.42581 
L 227.124 342.022266 
L 228.24 342.036739 
L 229.356 341.177872 
L 230.472 341.57671 
L 231.588 341.276377 
L 232.704 341.28693 
L 233.82 342.025217 
L 234.936 342.244877 
L 236.052 342.989015 
L 238.284 344.645854 
L 239.4 345.52059 
L 240.516 346.639569 
L 241.632 347.958809 
L 246.096 352.518388 
L 247.212 353.346932 
L 248.328 354.462974 
L 249.444 355.321052 
L 250.56 356.559806 
L 251.676 357.433907 
L 252.792 358.670435 
L 253.908 359.118016 
L 256.14 361.205258 
L 257.256 361.268183 
L 258.372 362.734226 
L 260.604 363.657615 
L 261.72 364.046846 
L 262.836 364.987518 
L 263.952 365.501705 
L 265.068 365.61776 
L 266.184 366.192527 
L 267.3 366.53202 
L 268.416 367.225362 
L 269.532 367.193631 
L 270.648 367.900371 
L 271.764 367.713169 
L 272.88 367.806425 
L 273.996 368.435871 
L 275.112 368.249116 
L 276.228 367.900136 
L 277.344 368.244558 
L 278.46 367.879746 
L 279.576 368.103335 
L 280.692 367.759061 
L 281.808 367.276063 
L 282.924 367.380269 
L 284.04 366.374423 
L 285.156 366.368202 
L 286.272 365.844446 
L 287.388 365.574554 
L 288.504 365.061513 
L 289.62 364.95758 
L 290.736 365.079108 
L 291.852 364.29682 
L 292.968 364.437188 
L 294.084 364.192813 
L 295.2 364.48794 
L 296.316 364.336819 
L 297.432 364.897025 
L 299.664 365.423659 
L 300.78 366.065925 
L 304.128 367.396146 
L 305.244 368.120198 
L 306.36 368.133104 
L 307.476 368.991709 
L 313.056 370.746273 
L 314.172 371.406572 
L 315.288 371.386608 
L 317.52 372.271003 
L 318.636 371.994383 
L 319.752 372.482628 
L 320.868 372.833439 
L 321.984 372.761134 
L 324.216 373.253923 
L 325.332 373.099045 
L 327.564 373.553258 
L 328.68 373.387106 
L 329.796 374.025413 
L 330.912 373.408891 
L 333.144 373.989654 
L 334.26 373.844072 
L 336.492 374.146739 
L 337.608 374.186202 
L 338.724 374.042993 
L 339.84 374.622302 
L 340.956 374.106543 
L 342.072 374.393356 
L 343.188 374.443872 
L 344.304 374.611367 
L 345.42 374.524875 
L 347.652 374.791134 
L 348.768 374.440027 
L 349.884 374.410394 
L 351 374.740251 
L 352.116 374.668159 
L 353.232 374.413444 
L 354.348 374.939781 
L 357.696 374.665509 
L 359.928 374.869437 
L 361.044 374.893018 
L 362.16 374.674786 
L 364.392 375.245627 
L 365.508 374.965015 
L 366.624 375.054153 
L 368.856 374.83923 
L 369.972 374.791465 
L 372.204 375.032896 
L 373.32 375.013493 
L 374.436 375.317115 
L 375.552 374.679822 
L 376.668 375.124143 
L 377.784 374.734156 
L 378.9 375.474621 
L 380.016 374.931369 
L 381.132 375.190416 
L 382.248 375.294743 
L 383.364 375.058855 
L 384.48 375.404278 
L 385.596 375.008725 
L 386.712 375.461254 
L 387.828 375.325786 
L 388.944 375.322939 
L 390.06 375.155791 
L 391.176 375.10322 
L 392.292 375.41083 
L 393.408 375.195183 
L 394.524 375.477201 
L 395.64 375.223583 
L 396.756 374.759995 
L 397.872 375.354444 
L 398.988 375.533905 
L 400.104 375.411955 
L 401.22 375.514983 
L 402.336 375.107987 
L 403.452 375.751273 
L 404.568 375.440873 
L 405.684 375.388991 
L 406.8 375.475282 
L 407.916 375.138312 
L 409.032 375.530862 
L 410.148 375.713772 
L 411.264 375.470254 
L 413.496 375.475745 
L 415.728 375.624078 
L 416.844 375.550644 
L 419.076 375.733482 
L 420.192 375.972126 
L 421.308 375.773825 
L 422.424 375.724884 
L 423.54 375.974308 
L 424.656 375.612964 
L 425.772 376.067185 
L 426.888 375.443454 
L 428.004 376.072076 
L 429.12 375.699023 
L 430.236 375.96525 
L 431.352 376.090848 
L 432.468 375.953284 
L 433.584 376.031093 
L 434.7 375.667934 
L 435.816 376.13936 
L 436.932 375.762979 
L 438.048 376.07624 
L 439.164 375.595301 
L 440.28 375.911169 
L 441.396 375.838633 
L 444.744 376.056278 
L 445.86 376.268817 
L 446.976 375.928888 
L 448.092 376.264588 
L 449.208 375.685199 
L 450.324 376.117286 
L 451.44 376.07201 
L 452.556 375.899929 
L 453.672 376.163615 
L 454.788 375.883332 
L 455.904 376.353321 
L 457.02 375.902904 
L 458.136 376.389722 
L 460.368 376.11028 
L 461.484 376.404453 
L 462.6 376.897698 
L 463.716 376.08166 
L 464.832 376.617322 
L 468.18 376.311963 
L 469.296 376.573936 
L 470.412 376.216615 
L 471.528 376.429027 
L 472.644 376.982701 
L 473.76 376.366864 
L 474.876 376.887204 
L 475.992 376.082189 
L 479.34 376.717817 
L 481.572 376.557558 
L 482.688 376.631717 
L 483.804 376.17518 
L 484.92 376.98765 
L 486.036 376.521564 
L 487.152 376.550359 
L 488.268 376.357946 
L 489.384 376.385494 
L 490.5 376.92225 
L 491.616 376.46212 
L 492.732 376.970888 
L 493.848 376.980655 
L 494.964 376.830241 
L 496.08 376.92852 
L 497.196 376.858888 
L 498.312 377.373823 
L 499.428 377.174437 
L 500.544 376.422157 
L 501.66 376.750431 
L 502.776 377.234531 
L 503.892 377.436137 
L 505.008 377.32278 
L 506.124 377.668452 
L 507.24 377.845721 
L 508.356 376.772348 
L 509.472 377.746022 
L 510.588 377.269423 
L 512.82 377.97386 
L 515.052 377.363338 
L 516.168 377.371911 
L 517.284 378.3398 
L 518.4 377.610646 
L 519.516 378.043945 
L 520.632 378.705828 
L 521.748 378.338088 
L 522.864 379.142419 
L 523.98 378.163939 
L 525.096 378.418527 
L 526.212 379.125722 
L 527.328 378.550417 
L 528.444 378.662999 
L 529.56 377.860677 
L 530.676 378.943204 
L 531.792 379.570917 
L 532.908 379.889794 
L 534.024 378.966679 
L 535.14 379.652624 
L 536.256 379.149978 
L 537.372 378.257111 
L 538.488 378.34263 
L 539.604 380.588242 
L 540.72 379.134991 
L 541.836 380.207504 
L 542.952 380.22161 
L 544.068 377.36802 
L 545.184 376.891494 
L 546.3 380.277571 
L 547.416 379.248309 
L 548.532 379.773848 
L 549.648 379.346228 
L 550.764 380.33438 
L 551.88 382.569388 
L 552.996 379.785141 
L 554.112 380.557163 
L 555.228 378.803119 
L 556.344 379.928328 
L 557.46 382.836797 
L 559.692 378.222609 
L 561.924 377.511169 
L 563.04 381.310045 
L 565.272 381.521442 
L 566.388 376.468923 
L 567.504 383.235975 
L 568.62 379.179558 
L 569.736 383.938069 
L 570.852 382.864811 
L 571.968 378.857907 
L 573.084 379.033878 
L 574.2 380.538803 
L 574.2 380.538803 
" clip-path="url(#p5feade701d)" style="fill: none; stroke: #800080; stroke-width: 3; stroke-linecap: square"/>
   </g>
   <g id="legend_1">
    <g id="patch_7">
     <path d="M 374.740313 171.9225 
L 505.8 171.9225 
Q 509.4 171.9225 509.4 168.3225 
L 509.4 64.44 
Q 509.4 60.84 505.8 60.84 
L 374.740313 60.84 
Q 371.140312 60.84 371.140312 64.44 
L 371.140312 168.3225 
Q 371.140312 171.9225 374.740313 171.9225 
z
" style="fill: #ffffff; opacity: 0.8; stroke: #cccccc; stroke-linejoin: miter"/>
    </g>
    <g id="line2d_24">
     <path d="M 378.340312 75.417187 
L 396.340312 75.417187 
L 414.340312 75.417187 
" style="fill: none; stroke: #800080; stroke-width: 3; stroke-linecap: square"/>
    </g>
    <g id="text_18">
     <!-- H2-TAPP -->
     <g transform="translate(428.740312 81.717187) scale(0.18 -0.18)">
      <defs>
       <path id="DejaVuSans-48" d="M 628 4666 
L 1259 4666 
L 1259 2753 
L 3553 2753 
L 3553 4666 
L 4184 4666 
L 4184 0 
L 3553 0 
L 3553 2222 
L 1259 2222 
L 1259 0 
L 628 0 
L 628 4666 
z
" transform="scale(0.015625)"/>
       <path id="DejaVuSans-2d" d="M 313 2009 
L 1997 2009 
L 1997 1497 
L 313 1497 
L 313 2009 
z
" transform="scale(0.015625)"/>
       <path id="DejaVuSans-54" d="M -19 4666 
L 3928 4666 
L 3928 4134 
L 2272 4134 
L 2272 0 
L 1638 0 
L 1638 4134 
L -19 4134 
L -19 4666 
z
" transform="scale(0.015625)"/>
       <path id="DejaVuSans-50" d="M 1259 4147 
L 1259 2394 
L 2053 2394 
Q 2494 2394 2734 2622 
Q 2975 2850 2975 3272 
Q 2975 3691 2734 3919 
Q 2494 4147 2053 4147 
L 1259 4147 
z
M 628 4666 
L 2053 4666 
Q 2838 4666 3239 4311 
Q 3641 3956 3641 3272 
Q 3641 2581 3239 2228 
Q 2838 1875 2053 1875 
L 1259 1875 
L 1259 0 
L 628 0 
L 628 4666 
z
" transform="scale(0.015625)"/>
      </defs>
      <use xlink:href="#DejaVuSans-48"/>
      <use xlink:href="#DejaVuSans-32" x="75.195312"/>
      <use xlink:href="#DejaVuSans-2d" x="138.818359"/>
      <use xlink:href="#DejaVuSans-54" x="165.777344"/>
      <use xlink:href="#DejaVuSans-41" x="219.111328"/>
      <use xlink:href="#DejaVuSans-50" x="287.519531"/>
      <use xlink:href="#DejaVuSans-50" x="347.822266"/>
     </g>
    </g>
    <g id="line2d_25">
     <path d="M 378.340312 101.837812 
L 396.340312 101.837812 
L 414.340312 101.837812 
" style="fill: none; stroke: #0000ff; stroke-width: 3; stroke-linecap: square"/>
    </g>
    <g id="text_19">
     <!-- Co-TAPP -->
     <g transform="translate(428.740312 108.137812) scale(0.18 -0.18)">
      <defs>
       <path id="DejaVuSans-43" d="M 4122 4306 
L 4122 3641 
Q 3803 3938 3442 4084 
Q 3081 4231 2675 4231 
Q 1875 4231 1450 3742 
Q 1025 3253 1025 2328 
Q 1025 1406 1450 917 
Q 1875 428 2675 428 
Q 3081 428 3442 575 
Q 3803 722 4122 1019 
L 4122 359 
Q 3791 134 3420 21 
Q 3050 -91 2638 -91 
Q 1578 -91 968 557 
Q 359 1206 359 2328 
Q 359 3453 968 4101 
Q 1578 4750 2638 4750 
Q 3056 4750 3426 4639 
Q 3797 4528 4122 4306 
z
" transform="scale(0.015625)"/>
      </defs>
      <use xlink:href="#DejaVuSans-43"/>
      <use xlink:href="#DejaVuSans-6f" x="69.824219"/>
      <use xlink:href="#DejaVuSans-2d" x="132.880859"/>
      <use xlink:href="#DejaVuSans-54" x="159.839844"/>
      <use xlink:href="#DejaVuSans-41" x="213.173828"/>
      <use xlink:href="#DejaVuSans-50" x="281.582031"/>
      <use xlink:href="#DejaVuSans-50" x="341.884766"/>
     </g>
    </g>
    <g id="line2d_26">
     <path d="M 378.340312 128.258437 
L 396.340312 128.258437 
L 414.340312 128.258437 
" style="fill: none; stroke: #ff0000; stroke-width: 3; stroke-linecap: square"/>
    </g>
    <g id="text_20">
     <!-- Ni-TAPP -->
     <g transform="translate(428.740312 134.558437) scale(0.18 -0.18)">
      <defs>
       <path id="DejaVuSans-4e" d="M 628 4666 
L 1478 4666 
L 3547 763 
L 3547 4666 
L 4159 4666 
L 4159 0 
L 3309 0 
L 1241 3903 
L 1241 0 
L 628 0 
L 628 4666 
z
" transform="scale(0.015625)"/>
      </defs>
      <use xlink:href="#DejaVuSans-4e"/>
      <use xlink:href="#DejaVuSans-69" x="74.804688"/>
      <use xlink:href="#DejaVuSans-2d" x="102.587891"/>
      <use xlink:href="#DejaVuSans-54" x="129.546875"/>
      <use xlink:href="#DejaVuSans-41" x="182.880859"/>
      <use xlink:href="#DejaVuSans-50" x="251.289062"/>
      <use xlink:href="#DejaVuSans-50" x="311.591797"/>
     </g>
    </g>
    <g id="line2d_27">
     <path d="M 378.340312 154.679062 
L 396.340312 154.679062 
L 414.340312 154.679062 
" style="fill: none; stroke: #008000; stroke-width: 3; stroke-linecap: square"/>
    </g>
    <g id="text_21">
     <!-- Zn-TAPP -->
     <g transform="translate(428.740312 160.979062) scale(0.18 -0.18)">
      <defs>
       <path id="DejaVuSans-5a" d="M 359 4666 
L 4025 4666 
L 4025 4184 
L 1075 531 
L 4097 531 
L 4097 0 
L 288 0 
L 288 481 
L 3238 4134 
L 359 4134 
L 359 4666 
z
" transform="scale(0.015625)"/>
      </defs>
      <use xlink:href="#DejaVuSans-5a"/>
      <use xlink:href="#DejaVuSans-6e" x="68.505859"/>
      <use xlink:href="#DejaVuSans-2d" x="131.884766"/>
      <use xlink:href="#DejaVuSans-54" x="158.84375"/>
      <use xlink:href="#DejaVuSans-41" x="212.177734"/>
      <use xlink:href="#DejaVuSans-50" x="280.585938"/>
      <use xlink:href="#DejaVuSans-50" x="340.888672"/>
     </g>
    </g>
   </g>
  </g>
  <g id="text_22">
   <!-- UV-Vis: 1$\mu$M M-TAPP in 1:1 MeOH:MeCN -->
   <g transform="translate(73.62 25.056) scale(0.216 -0.216)">
    <defs>
     <path id="DejaVuSans-55" d="M 556 4666 
L 1191 4666 
L 1191 1831 
Q 1191 1081 1462 751 
Q 1734 422 2344 422 
Q 2950 422 3222 751 
Q 3494 1081 3494 1831 
L 3494 4666 
L 4128 4666 
L 4128 1753 
Q 4128 841 3676 375 
Q 3225 -91 2344 -91 
Q 1459 -91 1007 375 
Q 556 841 556 1753 
L 556 4666 
z
" transform="scale(0.015625)"/>
     <path id="DejaVuSans-56" d="M 1831 0 
L 50 4666 
L 709 4666 
L 2188 738 
L 3669 4666 
L 4325 4666 
L 2547 0 
L 1831 0 
z
" transform="scale(0.015625)"/>
     <path id="DejaVuSans-3a" d="M 750 794 
L 1409 794 
L 1409 0 
L 750 0 
L 750 794 
z
M 750 3309 
L 1409 3309 
L 1409 2516 
L 750 2516 
L 750 3309 
z
" transform="scale(0.015625)"/>
     <path id="DejaVuSans-Oblique-3bc" d="M -84 -1331 
L 856 3500 
L 1434 3500 
L 1009 1322 
Q 997 1256 987 1175 
Q 978 1094 978 1013 
Q 978 722 1161 565 
Q 1344 409 1684 409 
Q 2147 409 2431 671 
Q 2716 934 2816 1459 
L 3213 3500 
L 3788 3500 
L 3266 809 
Q 3253 750 3248 706 
Q 3244 663 3244 628 
Q 3244 531 3283 486 
Q 3322 441 3406 441 
Q 3438 441 3492 456 
Q 3547 472 3647 513 
L 3559 50 
Q 3422 -19 3297 -55 
Q 3172 -91 3053 -91 
Q 2847 -91 2730 40 
Q 2613 172 2613 403 
Q 2438 153 2195 31 
Q 1953 -91 1625 -91 
Q 1334 -91 1117 43 
Q 900 178 831 397 
L 494 -1331 
L -84 -1331 
z
" transform="scale(0.015625)"/>
     <path id="DejaVuSans-4d" d="M 628 4666 
L 1569 4666 
L 2759 1491 
L 3956 4666 
L 4897 4666 
L 4897 0 
L 4281 0 
L 4281 4097 
L 3078 897 
L 2444 897 
L 1241 4097 
L 1241 0 
L 628 0 
L 628 4666 
z
" transform="scale(0.015625)"/>
     <path id="DejaVuSans-4f" d="M 2522 4238 
Q 1834 4238 1429 3725 
Q 1025 3213 1025 2328 
Q 1025 1447 1429 934 
Q 1834 422 2522 422 
Q 3209 422 3611 934 
Q 4013 1447 4013 2328 
Q 4013 3213 3611 3725 
Q 3209 4238 2522 4238 
z
M 2522 4750 
Q 3503 4750 4090 4092 
Q 4678 3434 4678 2328 
Q 4678 1225 4090 567 
Q 3503 -91 2522 -91 
Q 1538 -91 948 565 
Q 359 1222 359 2328 
Q 359 3434 948 4092 
Q 1538 4750 2522 4750 
z
" transform="scale(0.015625)"/>
    </defs>
    <use xlink:href="#DejaVuSans-55" transform="translate(0 0.015625)"/>
    <use xlink:href="#DejaVuSans-56" transform="translate(73.193359 0.015625)"/>
    <use xlink:href="#DejaVuSans-2d" transform="translate(141.601562 0.015625)"/>
    <use xlink:href="#DejaVuSans-56" transform="translate(177.685547 0.015625)"/>
    <use xlink:href="#DejaVuSans-69" transform="translate(246.09375 0.015625)"/>
    <use xlink:href="#DejaVuSans-73" transform="translate(273.876953 0.015625)"/>
    <use xlink:href="#DejaVuSans-3a" transform="translate(325.976562 0.015625)"/>
    <use xlink:href="#DejaVuSans-20" transform="translate(359.667969 0.015625)"/>
    <use xlink:href="#DejaVuSans-31" transform="translate(391.455078 0.015625)"/>
    <use xlink:href="#DejaVuSans-Oblique-3bc" transform="translate(455.078125 0.015625)"/>
    <use xlink:href="#DejaVuSans-4d" transform="translate(518.701172 0.015625)"/>
    <use xlink:href="#DejaVuSans-20" transform="translate(604.980469 0.015625)"/>
    <use xlink:href="#DejaVuSans-4d" transform="translate(636.767578 0.015625)"/>
    <use xlink:href="#DejaVuSans-2d" transform="translate(723.046875 0.015625)"/>
    <use xlink:href="#DejaVuSans-54" transform="translate(759.130859 0.015625)"/>
    <use xlink:href="#DejaVuSans-41" transform="translate(820.214844 0.015625)"/>
    <use xlink:href="#DejaVuSans-50" transform="translate(888.623047 0.015625)"/>
    <use xlink:href="#DejaVuSans-50" transform="translate(948.925781 0.015625)"/>
    <use xlink:href="#DejaVuSans-20" transform="translate(1009.228516 0.015625)"/>
    <use xlink:href="#DejaVuSans-69" transform="translate(1041.015625 0.015625)"/>
    <use xlink:href="#DejaVuSans-6e" transform="translate(1068.798828 0.015625)"/>
    <use xlink:href="#DejaVuSans-20" transform="translate(1132.177734 0.015625)"/>
    <use xlink:href="#DejaVuSans-31" transform="translate(1163.964844 0.015625)"/>
    <use xlink:href="#DejaVuSans-3a" transform="translate(1227.587891 0.015625)"/>
    <use xlink:href="#DejaVuSans-31" transform="translate(1261.279297 0.015625)"/>
    <use xlink:href="#DejaVuSans-20" transform="translate(1324.902344 0.015625)"/>
    <use xlink:href="#DejaVuSans-4d" transform="translate(1356.689453 0.015625)"/>
    <use xlink:href="#DejaVuSans-65" transform="translate(1442.96875 0.015625)"/>
    <use xlink:href="#DejaVuSans-4f" transform="translate(1504.492188 0.015625)"/>
    <use xlink:href="#DejaVuSans-48" transform="translate(1583.203125 0.015625)"/>
    <use xlink:href="#DejaVuSans-3a" transform="translate(1658.398438 0.015625)"/>
    <use xlink:href="#DejaVuSans-4d" transform="translate(1692.089844 0.015625)"/>
    <use xlink:href="#DejaVuSans-65" transform="translate(1778.369141 0.015625)"/>
    <use xlink:href="#DejaVuSans-43" transform="translate(1839.892578 0.015625)"/>
    <use xlink:href="#DejaVuSans-4e" transform="translate(1909.716797 0.015625)"/>
   </g>
  </g>
 </g>
 <defs>
  <clipPath id="p5feade701d">
   <rect x="72" y="51.84" width="446.4" height="326.16"/>
  </clipPath>
 </defs>
</svg>
