<?xml version="1.0" encoding="utf-8" standalone="no"?>
<!DOCTYPE svg PUBLIC "-//W3C//DTD SVG 1.1//EN"
  "http://www.w3.org/Graphics/SVG/1.1/DTD/svg11.dtd">
<svg xmlns:xlink="http://www.w3.org/1999/xlink" width="576pt" height="432pt" viewBox="0 0 576 432" xmlns="http://www.w3.org/2000/svg" version="1.1">
 <metadata>
  <rdf:RDF xmlns:dc="http://purl.org/dc/elements/1.1/" xmlns:cc="http://creativecommons.org/ns#" xmlns:rdf="http://www.w3.org/1999/02/22-rdf-syntax-ns#">
   <cc:Work>
    <dc:type rdf:resource="http://purl.org/dc/dcmitype/StillImage"/>
    <dc:date>2024-11-14T21:02:32.567396</dc:date>
    <dc:format>image/svg+xml</dc:format>
    <dc:creator>
     <cc:Agent>
      <dc:title>Matplotlib v3.8.2, https://matplotlib.org/</dc:title>
     </cc:Agent>
    </dc:creator>
   </cc:Work>
  </rdf:RDF>
 </metadata>
 <defs>
  <style type="text/css">*{stroke-linejoin: round; stroke-linecap: butt}</style>
 </defs>
 <g id="figure_1">
  <g id="patch_1">
   <path d="M 0 432 
L 576 432 
L 576 0 
L 0 0 
z
" style="fill: #ffffff"/>
  </g>
  <g id="axes_1">
   <g id="patch_2">
    <path d="M 72 378 
L 518.4 378 
L 518.4 51.84 
L 72 51.84 
z
" style="fill: #ffffff"/>
   </g>
   <g id="line2d_1">
    <path d="M 127.8 283.726782 
L 128.916 290.22064 
L 131.148 301.007236 
L 133.38 309.023856 
L 135.612 314.911603 
L 136.728 317.352697 
L 137.844 318.68375 
L 138.96 320.83429 
L 141.192 322.267095 
L 142.308 322.85465 
L 143.424 322.972377 
L 144.54 323.458102 
L 145.656 323.06474 
L 150.12 320.795846 
L 152.352 319.052622 
L 153.468 318.230244 
L 154.584 317.848293 
L 155.7 316.9187 
L 159.048 315.183218 
L 161.28 314.474179 
L 162.396 314.125943 
L 163.512 313.912771 
L 165.744 313.895795 
L 166.86 313.257724 
L 167.976 313.111107 
L 169.092 312.398029 
L 170.208 311.824996 
L 172.44 309.84587 
L 173.556 308.031396 
L 174.672 305.869324 
L 175.788 303.211801 
L 176.904 299.807782 
L 178.02 295.823863 
L 179.136 291.389509 
L 180.252 286.425378 
L 181.368 280.220311 
L 183.6 265.85921 
L 184.716 257.688353 
L 188.064 228.262935 
L 190.296 206.383668 
L 192.528 183.331411 
L 196.992 139.852454 
L 198.108 130.063406 
L 200.34 113.986007 
L 201.456 108.366686 
L 202.572 103.692843 
L 203.688 100.365984 
L 204.804 99.207088 
L 205.92 99.217702 
L 207.036 100.779836 
L 208.152 104.085544 
L 209.268 108.30364 
L 211.5 121.05315 
L 213.732 137.996766 
L 214.848 146.989505 
L 221.544 207.528373 
L 223.776 225.406909 
L 226.008 241.182832 
L 227.124 248.099087 
L 229.356 259.565659 
L 230.472 263.017133 
L 231.588 266.986787 
L 233.82 271.603679 
L 234.936 272.520539 
L 236.052 272.827731 
L 237.168 272.849815 
L 238.284 271.712382 
L 239.4 270.107021 
L 240.516 268.019368 
L 241.632 265.693955 
L 242.748 263.071489 
L 244.98 257.174119 
L 246.096 254.004126 
L 249.444 245.964445 
L 250.56 244.326026 
L 251.676 242.112066 
L 252.792 241.616155 
L 253.908 240.667733 
L 255.024 240.965194 
L 256.14 241.545391 
L 257.256 242.922518 
L 258.372 244.522726 
L 259.488 246.750586 
L 260.604 249.604532 
L 261.72 252.79483 
L 263.952 260.373953 
L 268.416 278.726228 
L 270.648 288.644761 
L 276.228 312.418388 
L 277.344 316.199361 
L 278.46 320.718355 
L 282.924 335.352028 
L 285.156 341.548121 
L 287.388 346.961207 
L 290.736 353.677491 
L 291.852 355.657861 
L 295.2 360.707875 
L 297.432 363.302551 
L 298.548 364.165604 
L 299.664 365.82374 
L 300.78 366.616018 
L 301.896 367.868016 
L 303.012 368.323007 
L 304.128 369.290471 
L 309.708 372.078916 
L 310.824 372.816561 
L 311.94 372.85923 
L 313.056 373.491328 
L 314.172 373.391135 
L 316.404 374.184775 
L 317.52 374.33473 
L 318.636 374.675082 
L 319.752 374.761972 
L 320.868 375.162045 
L 321.984 375.027383 
L 323.1 375.644996 
L 324.216 375.573368 
L 325.332 375.363282 
L 326.448 375.79392 
L 328.68 376.101376 
L 329.796 375.999407 
L 334.26 376.625169 
L 335.376 376.069998 
L 337.608 376.528034 
L 338.724 376.464645 
L 339.84 376.787645 
L 340.956 376.453233 
L 342.072 376.638406 
L 343.188 376.429595 
L 344.304 376.65865 
L 345.42 376.53528 
L 349.884 376.994429 
L 351 376.617687 
L 352.116 376.576519 
L 355.464 377.022509 
L 356.58 376.699677 
L 357.696 376.945168 
L 358.812 376.73031 
L 359.928 377.147565 
L 361.044 376.766695 
L 362.16 377.000282 
L 363.276 377.063374 
L 364.392 376.716026 
L 365.508 376.83428 
L 366.624 376.765104 
L 367.74 377.084414 
L 368.856 376.842165 
L 369.972 376.941378 
L 372.204 376.804228 
L 373.32 376.975517 
L 374.436 376.759993 
L 376.668 377.17841 
L 377.784 376.859593 
L 378.9 377.073285 
L 380.016 376.814279 
L 381.132 377.003868 
L 382.248 376.662306 
L 383.364 376.974434 
L 384.48 376.862943 
L 386.712 377.120168 
L 387.828 376.719715 
L 388.944 377.024166 
L 390.06 376.775901 
L 391.176 377.284902 
L 392.292 376.945641 
L 393.408 376.846124 
L 394.524 377.097979 
L 395.64 376.94713 
L 396.756 377.185242 
L 397.872 377.038612 
L 398.988 376.688912 
L 400.104 377.137486 
L 401.22 377.009213 
L 402.336 377.18832 
L 404.568 377.240637 
L 405.684 377.114857 
L 407.916 377.389887 
L 409.032 376.805514 
L 410.148 377.33383 
L 411.264 376.724894 
L 412.38 377.287134 
L 413.496 377.38681 
L 415.728 377.264377 
L 416.844 377.311412 
L 417.96 377.00468 
L 419.076 377.35415 
L 421.308 376.985734 
L 422.424 377.560491 
L 423.54 377.008706 
L 424.656 377.118003 
L 425.772 377.436202 
L 426.888 377.425858 
L 428.004 377.176584 
L 429.12 377.381097 
L 431.352 377.048354 
L 432.468 377.338902 
L 433.584 377.866011 
L 434.7 377.094123 
L 435.816 377.478796 
L 438.048 377.343162 
L 441.396 377.481162 
L 443.628 377.715907 
L 444.744 377.27141 
L 445.86 377.083332 
L 446.976 377.536934 
L 448.092 377.247942 
L 449.208 377.190518 
L 450.324 377.70746 
L 451.44 377.04717 
L 452.556 377.5587 
L 453.672 377.355503 
L 454.788 377.497015 
L 455.904 376.89042 
L 457.02 377.39844 
L 458.136 377.139008 
L 459.252 377.653057 
L 460.368 377.422883 
L 461.484 377.630212 
L 462.6 377.418386 
L 463.716 377.636329 
L 464.832 377.268265 
L 468.18 377.144352 
L 469.296 377.598175 
L 470.412 377.35104 
L 471.528 377.761385 
L 473.76 377.297988 
L 475.992 377.777974 
L 477.108 377.149188 
L 478.224 377.473725 
L 479.34 377.153619 
L 480.456 377.554205 
L 481.572 377.785373 
L 483.804 377.545147 
L 484.92 377.855539 
L 486.036 377.262111 
L 487.152 377.895095 
L 488.268 377.46088 
L 491.616 378.120215 
L 492.732 377.57837 
L 493.848 377.246657 
L 494.964 377.842162 
L 496.08 377.636431 
L 497.196 377.689822 
L 498.312 377.625684 
L 499.428 377.859863 
L 501.66 377.650083 
L 502.776 377.118612 
L 503.892 377.496542 
L 505.008 377.646197 
L 506.124 377.595167 
L 507.24 377.403106 
L 508.356 378.101712 
L 509.472 377.819123 
L 510.588 378.171265 
L 511.704 377.208138 
L 512.82 377.602061 
L 513.936 377.828075 
L 515.052 378.362121 
L 516.168 378.771634 
L 517.284 377.942619 
L 518.4 378.107114 
L 519.516 378.531927 
L 520.632 377.156021 
L 521.748 378.178017 
L 522.864 378.275511 
L 523.98 378.152831 
L 525.096 378.821142 
L 526.212 378.996474 
L 527.328 379.381206 
L 528.444 378.721785 
L 529.56 378.45243 
L 530.676 377.953359 
L 531.792 378.758144 
L 532.908 379.147891 
L 534.024 379.056547 
L 535.14 379.660559 
L 536.256 380.132323 
L 537.372 379.318472 
L 538.488 379.882151 
L 539.604 378.43036 
L 540.72 379.854213 
L 541.836 378.371031 
L 542.952 378.565801 
L 544.068 379.85906 
L 545.184 379.484085 
L 546.3 380.407204 
L 547.416 376.027197 
L 548.532 381.229837 
L 549.648 376.750889 
L 550.764 379.095176 
L 551.88 379.043467 
L 552.996 379.613482 
L 554.112 381.570973 
L 555.228 378.677329 
L 556.344 379.675779 
L 557.46 378.353954 
L 558.576 379.494122 
L 559.692 380.84945 
L 560.808 380.694925 
L 561.924 377.082892 
L 563.04 380.791584 
L 564.156 380.506669 
L 565.272 378.573696 
L 566.388 375.721904 
L 567.504 377.997197 
L 568.62 383.756389 
L 569.736 380.930359 
L 570.852 380.554546 
L 571.968 379.947044 
L 574.2 381.64084 
L 574.2 381.64084 
" clip-path="url(#p8833b43e9f)" style="fill: none; stroke: #4daf4a; stroke-width: 3; stroke-linecap: square"/>
   </g>
   <g id="line2d_2">
    <path d="M 105.48 331.021429 
L 106.596 332.965776 
L 107.712 334.865064 
L 108.828 336.292027 
L 109.944 338.112316 
L 111.06 339.145847 
L 112.176 340.597582 
L 113.292 341.272603 
L 114.408 342.10469 
L 115.524 342.864775 
L 116.64 343.607012 
L 117.756 343.612429 
L 118.872 343.972815 
L 119.988 344.401853 
L 121.104 344.582396 
L 122.22 344.102336 
L 123.336 343.853527 
L 124.452 343.554114 
L 125.568 342.577926 
L 126.684 341.911549 
" clip-path="url(#p8833b43e9f)" style="fill: none; stroke-dasharray: 11.1,4.8; stroke-dashoffset: 0; stroke: #984ea3; stroke-width: 3"/>
   </g>
   <g id="line2d_3">
    <path d="M 574.187399 374.327693 
L 573.075418 374.440262 
L 571.962823 375.028131 
L 570.849752 376.3413 
L 569.736 374.59341 
L 568.621839 376.628385 
L 567.507065 377.538015 
L 566.391883 374.963792 
L 565.276019 375.868638 
L 564.15961 375.976496 
L 563.042657 375.365012 
L 561.925158 376.337642 
L 560.807114 374.787852 
L 559.688662 375.188214 
L 558.569597 375.320122 
L 557.449919 375.660324 
L 556.3299 375.092665 
L 555.246527 375.872199 
L 554.125283 373.982846 
L 553.003561 375.147077 
L 551.88143 375.188383 
L 550.758687 373.967303 
L 549.635331 376.185812 
L 548.548893 375.517232 
L 547.424582 375.385743 
L 546.299659 373.424806 
L 545.174191 374.704431 
L 544.085914 374.188583 
L 542.959425 374.527222 
L 541.832322 374.322323 
L 540.704878 375.973276 
L 539.614422 375.239392 
L 538.48582 375.869283 
L 537.35681 373.786223 
L 536.264923 374.024544 
L 535.134823 376.997001 
L 534.041846 372.295784 
L 532.910725 374.149075 
L 531.779126 371.382816 
L 530.684651 372.222263 
L 529.552031 372.677147 
L 528.456465 374.977848 
L 527.322823 374.44903 
L 526.226509 374.794747 
L 525.091709 372.761209 
L 523.994372 373.607263 
L 522.858619 374.853705 
L 520.623554 374.723217 
L 519.524106 376.174496 
L 518.386309 372.520786 
L 517.285975 372.30247 
L 516.185301 372.697737 
L 515.045938 371.85524 
L 513.944174 373.456945 
L 512.803993 370.872552 
L 511.701071 373.290548 
L 510.598013 376.536431 
L 509.456061 374.528547 
L 508.351913 373.879917 
L 507.247152 376.731223 
L 506.142119 373.657802 
L 504.99826 378.460663 
L 502.785672 371.548203 
L 501.678527 373.234937 
L 500.532897 372.67333 
L 499.424799 374.647632 
L 498.316291 374.419327 
L 497.207239 373.59974 
L 496.097846 373.940467 
L 494.949696 372.939312 
L 493.839418 374.473022 
L 492.728458 373.005618 
L 491.61709 374.292104 
L 490.505381 371.765684 
L 489.393059 372.761993 
L 488.280329 372.647113 
L 487.16719 371.913582 
L 486.053506 371.927954 
L 484.900996 373.745018 
L 482.671312 371.818674 
L 481.555789 370.462423 
L 480.439789 373.875733 
L 478.206494 372.201691 
L 477.0892 371.973967 
L 476.009914 371.99977 
L 474.891667 373.485133 
L 473.772874 373.565976 
L 472.653604 373.469507 
L 470.413907 372.04117 
L 469.293343 371.873504 
L 468.172371 371.33901 
L 467.050922 370.275836 
L 465.928996 373.551851 
L 464.845351 371.603093 
L 463.722539 372.80286 
L 462.599251 372.023662 
L 461.475486 371.721702 
L 460.35138 372.015402 
L 459.265623 371.401507 
L 458.140496 369.912721 
L 457.014891 370.952369 
L 455.889015 370.873988 
L 454.801487 372.079428 
L 453.674657 371.939866 
L 452.547281 371.610743 
L 451.458459 369.070358 
L 450.330335 371.959153 
L 449.201802 369.055571 
L 448.072655 372.687613 
L 446.98213 371.459794 
L 445.852235 372.673738 
L 444.760824 371.343659 
L 443.630044 371.035079 
L 442.498717 371.605484 
L 441.406149 370.960472 
L 440.274006 370.844372 
L 439.180552 369.68483 
L 438.047591 369.649118 
L 436.914154 369.453075 
L 435.819406 369.768581 
L 434.685151 369.551568 
L 433.589517 370.803055 
L 432.454445 370.183255 
L 431.357994 368.725488 
L 429.124768 366.9318 
L 427.987925 369.254425 
L 426.889839 370.303121 
L 425.791413 369.031931 
L 424.653207 369.045551 
L 423.553964 368.61377 
L 422.415009 367.566653 
L 421.31488 368.356603 
L 420.175039 368.137913 
L 419.074161 367.084236 
L 417.972806 369.280046 
L 416.831671 367.672423 
L 415.729567 369.402605 
L 414.627054 369.623104 
L 413.484693 369.666356 
L 412.381362 368.061138 
L 411.277623 368.607967 
L 410.134036 367.884726 
L 409.02948 367.559189 
L 407.924446 367.766686 
L 406.81914 367.65134 
L 405.673919 368.819508 
L 404.567728 367.371368 
L 403.461264 367.680436 
L 402.354255 368.299165 
L 401.207399 368.101588 
L 400.099641 366.278959 
L 398.991474 364.696671 
L 397.882967 367.247199 
L 396.774051 366.381004 
L 395.625151 366.939168 
L 394.515418 368.060828 
L 393.405275 367.20882 
L 392.294793 367.484089 
L 391.183901 365.906409 
L 388.961029 366.169275 
L 387.8092 365.953086 
L 386.69681 366.919368 
L 385.583944 366.301645 
L 384.470736 366.249239 
L 382.243232 366.969509 
L 381.128799 366.392484 
L 380.014093 366.449841 
L 378.89891 365.213733 
L 377.783387 366.618636 
L 376.667591 365.44671 
L 375.551251 367.044608 
L 374.434638 365.931455 
L 373.317548 366.049222 
L 372.200186 365.331788 
L 371.082346 366.637311 
L 369.964235 365.65764 
L 368.845715 364.896681 
L 367.726786 365.894195 
L 366.607448 365.900335 
L 365.527753 366.106717 
L 364.407735 364.530206 
L 363.287307 365.445778 
L 361.045294 364.949351 
L 359.923777 365.416255 
L 358.801851 365.429067 
L 357.679652 363.988806 
L 356.597097 365.146614 
L 355.474013 364.790739 
L 354.350588 365.59651 
L 353.226891 365.324086 
L 352.102786 364.452005 
L 351.018391 365.242715 
L 349.893536 363.996249 
L 348.768341 365.751929 
L 347.642804 365.281814 
L 346.516792 365.037192 
L 345.430762 365.989617 
L 344.304068 365.917379 
L 343.177102 364.876531 
L 340.96213 364.992202 
L 339.834006 365.544314 
L 338.705473 365.825948 
L 337.616991 365.123086 
L 336.487777 363.548162 
L 335.358222 363.742968 
L 334.268719 364.726645 
L 333.138415 364.667593 
L 332.00777 364.173597 
L 330.917177 363.363029 
L 329.785919 365.64701 
L 328.694645 364.422189 
L 327.56257 365.28392 
L 325.337858 363.3553 
L 324.204829 364.552961 
L 323.111716 364.819015 
L 321.978006 363.198597 
L 320.884348 363.62926 
L 319.74982 363.094347 
L 318.655617 364.865954 
L 317.520341 361.982015 
L 316.384792 363.522041 
L 315.28943 363.434899 
L 314.153336 362.705019 
L 313.057294 363.981502 
L 310.823728 362.293203 
L 309.726732 363.41442 
L 308.58873 362.343546 
L 307.49119 362.681566 
L 306.352507 361.175643 
L 305.254217 361.712402 
L 304.114854 362.435055 
L 303.015951 361.111868 
L 301.875906 361.42169 
L 300.776254 362.180729 
L 299.676397 362.299592 
L 298.535399 361.050176 
L 297.434725 360.789972 
L 296.333914 359.219488 
L 295.191894 360.687507 
L 294.090335 358.519109 
L 292.947634 359.73627 
L 291.845461 360.402122 
L 290.742948 359.299845 
L 289.640094 357.605115 
L 288.496099 358.395432 
L 287.392632 358.160795 
L 286.288824 357.194584 
L 285.143807 356.605794 
L 284.039387 357.085929 
L 282.934626 355.692009 
L 281.788655 354.550531 
L 280.683281 353.896827 
L 279.577567 354.257847 
L 278.47158 353.383685 
L 277.324247 350.868226 
L 275.110706 350.217565 
L 274.003493 349.611856 
L 272.895803 348.307709 
L 271.746971 345.889094 
L 270.638736 345.613358 
L 269.530229 344.450908 
L 268.421381 342.999577 
L 267.312329 342.390198 
L 263.941987 337.703438 
L 262.831641 335.15333 
L 261.721022 334.194698 
L 260.610062 331.753059 
L 259.498762 331.12966 
L 258.38719 328.606584 
L 257.275345 327.292902 
L 256.121949 325.13357 
L 255.00956 324.787852 
L 253.896761 321.928652 
L 252.783622 320.269616 
L 251.670278 317.943221 
L 250.556594 317.19082 
L 249.44257 315.706161 
L 248.328272 313.805061 
L 247.213771 312.495052 
L 246.098861 311.774587 
L 244.983678 311.676226 
L 243.868223 310.058895 
L 242.752496 308.084201 
L 241.636359 308.49211 
L 240.520019 307.435147 
L 239.403406 307.497838 
L 238.286452 306.939313 
L 237.169226 307.840615 
L 236.051659 306.301596 
L 234.933888 306.539253 
L 233.815777 305.319902 
L 232.697325 305.917386 
L 231.5786 305.309078 
L 230.459603 305.926168 
L 229.340402 305.438222 
L 228.220792 305.90438 
L 227.142391 305.107891 
L 226.022304 304.06283 
L 224.901877 303.854543 
L 222.660204 300.112811 
L 221.538891 299.668543 
L 220.417374 296.985525 
L 219.295448 295.247487 
L 218.214868 293.353189 
L 214.846774 284.347414 
L 213.723554 281.204076 
L 212.600061 277.669056 
L 211.517846 275.220933 
L 210.39374 270.152619 
L 209.269294 267.383736 
L 208.144644 262.87227 
L 207.01972 259.332362 
L 204.810675 253.629106 
L 203.684867 248.802449 
L 202.558922 245.866377 
L 201.474255 243.671624 
L 200.347697 239.317366 
L 198.093696 236.164802 
L 197.008007 233.516412 
L 195.880359 233.142801 
L 194.752303 231.71923 
L 193.62411 231.134349 
L 192.537332 231.1677 
L 189.192125 234.683152 
L 188.062433 237.454873 
L 186.932674 239.102507 
L 185.844397 242.215082 
L 184.714025 245.838023 
L 182.494285 253.894451 
L 180.231702 260.362104 
L 179.141926 263.655613 
L 178.009919 266.258394 
L 176.919667 271.076157 
L 173.563288 280.47056 
L 170.204594 289.429891 
L 169.112571 291.120411 
L 167.978248 293.915588 
L 165.750812 296.742653 
L 164.615807 298.485716 
L 163.52249 298.890217 
L 162.386804 300.63436 
L 161.293078 300.855138 
L 160.156916 301.749587 
L 159.062645 301.776673 
L 156.831258 301.470522 
L 155.694074 302.055472 
L 154.598781 300.763339 
L 153.461257 300.253493 
L 152.365419 300.452069 
L 151.227349 299.928922 
L 150.131103 299.578294 
L 148.992352 299.390158 
L 147.895765 298.634801 
L 146.756538 298.694353 
L 145.659406 297.194949 
L 143.422093 296.332907 
L 142.324211 294.776343 
L 141.183792 294.878037 
L 140.085434 293.927884 
L 138.944504 293.703889 
L 137.845669 292.324624 
L 136.746629 290.21299 
L 135.605018 288.56172 
L 134.505502 288.463865 
L 132.263387 283.479837 
L 131.163156 281.763451 
L 128.91961 278.597775 
L 126.675111 272.563668 
L 124.472162 267.817165 
L 122.22579 260.231657 
L 121.123481 255.059744 
L 119.978566 250.761844 
L 118.875849 247.082156 
L 117.772722 241.837282 
L 116.627092 234.601248 
L 114.419954 222.898258 
L 113.273677 216.898815 
L 112.169495 207.041365 
L 111.065177 196.145114 
L 109.96062 188.169256 
L 108.813355 177.987584 
L 106.603152 154.106805 
L 106.603152 154.106805 
" clip-path="url(#p8833b43e9f)" style="fill: none; stroke-dasharray: 11.1,4.8; stroke-dashoffset: 0; stroke: #377eb8; stroke-width: 3"/>
   </g>
   <g id="line2d_4">
    <path d="M 105.48 261.76081 
L 106.596 267.744807 
L 107.712 273.642216 
L 108.828 279.276195 
L 109.944 284.526162 
L 111.06 289.442129 
L 112.176 294.220048 
L 113.292 298.852512 
L 114.408 302.995563 
L 115.524 307.163425 
L 116.64 310.829834 
L 117.756 314.306226 
L 118.872 317.210786 
L 119.988 320.281806 
L 121.104 323.049182 
L 122.22 324.990774 
L 123.336 327.47994 
L 124.452 329.707785 
L 125.568 331.330948 
L 126.684 333.323751 
" clip-path="url(#p8833b43e9f)" style="fill: none; stroke-dasharray: 11.1,4.8; stroke-dashoffset: 0; stroke: #a65628; stroke-width: 3"/>
   </g>
   <g id="line2d_5">
    <path d="M 110.818465 -1 
L 111.06 7.275652 
L 112.176 42.782562 
L 113.292 74.035488 
L 114.408 102.684593 
L 115.524 128.814441 
L 116.64 151.872764 
L 117.756 172.60474 
L 118.872 191.539643 
L 119.988 208.012076 
L 121.104 222.891678 
L 122.22 235.924175 
L 123.336 248.142371 
L 124.452 258.39297 
L 125.568 267.832426 
L 126.684 276.269873 
" clip-path="url(#p8833b43e9f)" style="fill: none; stroke-dasharray: 11.1,4.8; stroke-dashoffset: 0; stroke: #4daf4a; stroke-width: 3"/>
   </g>
   <g id="matplotlib.axis_1">
    <g id="xtick_1">
     <g id="line2d_6">
      <defs>
       <path id="mbbfcc9a5e8" d="M 0 0 
L 0 3.5 
" style="stroke: #000000; stroke-width: 0.8"/>
      </defs>
      <g>
       <use xlink:href="#mbbfcc9a5e8" x="72" y="378" style="stroke: #000000; stroke-width: 0.8"/>
      </g>
     </g>
     <g id="text_1">
      <!-- 450 -->
      <g transform="translate(54.82125 398.677188) scale(0.18 -0.18)">
       <defs>
        <path id="DejaVuSans-34" d="M 2419 4116 
L 825 1625 
L 2419 1625 
L 2419 4116 
z
M 2253 4666 
L 3047 4666 
L 3047 1625 
L 3713 1625 
L 3713 1100 
L 3047 1100 
L 3047 0 
L 2419 0 
L 2419 1100 
L 313 1100 
L 313 1709 
L 2253 4666 
z
" transform="scale(0.015625)"/>
        <path id="DejaVuSans-35" d="M 691 4666 
L 3169 4666 
L 3169 4134 
L 1269 4134 
L 1269 2991 
Q 1406 3038 1543 3061 
Q 1681 3084 1819 3084 
Q 2600 3084 3056 2656 
Q 3513 2228 3513 1497 
Q 3513 744 3044 326 
Q 2575 -91 1722 -91 
Q 1428 -91 1123 -41 
Q 819 9 494 109 
L 494 744 
Q 775 591 1075 516 
Q 1375 441 1709 441 
Q 2250 441 2565 725 
Q 2881 1009 2881 1497 
Q 2881 1984 2565 2268 
Q 2250 2553 1709 2553 
Q 1456 2553 1204 2497 
Q 953 2441 691 2322 
L 691 4666 
z
" transform="scale(0.015625)"/>
        <path id="DejaVuSans-30" d="M 2034 4250 
Q 1547 4250 1301 3770 
Q 1056 3291 1056 2328 
Q 1056 1369 1301 889 
Q 1547 409 2034 409 
Q 2525 409 2770 889 
Q 3016 1369 3016 2328 
Q 3016 3291 2770 3770 
Q 2525 4250 2034 4250 
z
M 2034 4750 
Q 2819 4750 3233 4129 
Q 3647 3509 3647 2328 
Q 3647 1150 3233 529 
Q 2819 -91 2034 -91 
Q 1250 -91 836 529 
Q 422 1150 422 2328 
Q 422 3509 836 4129 
Q 1250 4750 2034 4750 
z
" transform="scale(0.015625)"/>
       </defs>
       <use xlink:href="#DejaVuSans-34"/>
       <use xlink:href="#DejaVuSans-35" x="63.623047"/>
       <use xlink:href="#DejaVuSans-30" x="127.246094"/>
      </g>
     </g>
    </g>
    <g id="xtick_2">
     <g id="line2d_7">
      <g>
       <use xlink:href="#mbbfcc9a5e8" x="127.8" y="378" style="stroke: #000000; stroke-width: 0.8"/>
      </g>
     </g>
     <g id="text_2">
      <!-- 500 -->
      <g transform="translate(110.62125 398.677188) scale(0.18 -0.18)">
       <use xlink:href="#DejaVuSans-35"/>
       <use xlink:href="#DejaVuSans-30" x="63.623047"/>
       <use xlink:href="#DejaVuSans-30" x="127.246094"/>
      </g>
     </g>
    </g>
    <g id="xtick_3">
     <g id="line2d_8">
      <g>
       <use xlink:href="#mbbfcc9a5e8" x="183.6" y="378" style="stroke: #000000; stroke-width: 0.8"/>
      </g>
     </g>
     <g id="text_3">
      <!-- 550 -->
      <g transform="translate(166.42125 398.677188) scale(0.18 -0.18)">
       <use xlink:href="#DejaVuSans-35"/>
       <use xlink:href="#DejaVuSans-35" x="63.623047"/>
       <use xlink:href="#DejaVuSans-30" x="127.246094"/>
      </g>
     </g>
    </g>
    <g id="xtick_4">
     <g id="line2d_9">
      <g>
       <use xlink:href="#mbbfcc9a5e8" x="239.4" y="378" style="stroke: #000000; stroke-width: 0.8"/>
      </g>
     </g>
     <g id="text_4">
      <!-- 600 -->
      <g transform="translate(222.22125 398.677188) scale(0.18 -0.18)">
       <defs>
        <path id="DejaVuSans-36" d="M 2113 2584 
Q 1688 2584 1439 2293 
Q 1191 2003 1191 1497 
Q 1191 994 1439 701 
Q 1688 409 2113 409 
Q 2538 409 2786 701 
Q 3034 994 3034 1497 
Q 3034 2003 2786 2293 
Q 2538 2584 2113 2584 
z
M 3366 4563 
L 3366 3988 
Q 3128 4100 2886 4159 
Q 2644 4219 2406 4219 
Q 1781 4219 1451 3797 
Q 1122 3375 1075 2522 
Q 1259 2794 1537 2939 
Q 1816 3084 2150 3084 
Q 2853 3084 3261 2657 
Q 3669 2231 3669 1497 
Q 3669 778 3244 343 
Q 2819 -91 2113 -91 
Q 1303 -91 875 529 
Q 447 1150 447 2328 
Q 447 3434 972 4092 
Q 1497 4750 2381 4750 
Q 2619 4750 2861 4703 
Q 3103 4656 3366 4563 
z
" transform="scale(0.015625)"/>
       </defs>
       <use xlink:href="#DejaVuSans-36"/>
       <use xlink:href="#DejaVuSans-30" x="63.623047"/>
       <use xlink:href="#DejaVuSans-30" x="127.246094"/>
      </g>
     </g>
    </g>
    <g id="xtick_5">
     <g id="line2d_10">
      <g>
       <use xlink:href="#mbbfcc9a5e8" x="295.2" y="378" style="stroke: #000000; stroke-width: 0.8"/>
      </g>
     </g>
     <g id="text_5">
      <!-- 650 -->
      <g transform="translate(278.02125 398.677188) scale(0.18 -0.18)">
       <use xlink:href="#DejaVuSans-36"/>
       <use xlink:href="#DejaVuSans-35" x="63.623047"/>
       <use xlink:href="#DejaVuSans-30" x="127.246094"/>
      </g>
     </g>
    </g>
    <g id="xtick_6">
     <g id="line2d_11">
      <g>
       <use xlink:href="#mbbfcc9a5e8" x="351" y="378" style="stroke: #000000; stroke-width: 0.8"/>
      </g>
     </g>
     <g id="text_6">
      <!-- 700 -->
      <g transform="translate(333.82125 398.677188) scale(0.18 -0.18)">
       <defs>
        <path id="DejaVuSans-37" d="M 525 4666 
L 3525 4666 
L 3525 4397 
L 1831 0 
L 1172 0 
L 2766 4134 
L 525 4134 
L 525 4666 
z
" transform="scale(0.015625)"/>
       </defs>
       <use xlink:href="#DejaVuSans-37"/>
       <use xlink:href="#DejaVuSans-30" x="63.623047"/>
       <use xlink:href="#DejaVuSans-30" x="127.246094"/>
      </g>
     </g>
    </g>
    <g id="xtick_7">
     <g id="line2d_12">
      <g>
       <use xlink:href="#mbbfcc9a5e8" x="406.8" y="378" style="stroke: #000000; stroke-width: 0.8"/>
      </g>
     </g>
     <g id="text_7">
      <!-- 750 -->
      <g transform="translate(389.62125 398.677188) scale(0.18 -0.18)">
       <use xlink:href="#DejaVuSans-37"/>
       <use xlink:href="#DejaVuSans-35" x="63.623047"/>
       <use xlink:href="#DejaVuSans-30" x="127.246094"/>
      </g>
     </g>
    </g>
    <g id="xtick_8">
     <g id="line2d_13">
      <g>
       <use xlink:href="#mbbfcc9a5e8" x="462.6" y="378" style="stroke: #000000; stroke-width: 0.8"/>
      </g>
     </g>
     <g id="text_8">
      <!-- 800 -->
      <g transform="translate(445.42125 398.677188) scale(0.18 -0.18)">
       <defs>
        <path id="DejaVuSans-38" d="M 2034 2216 
Q 1584 2216 1326 1975 
Q 1069 1734 1069 1313 
Q 1069 891 1326 650 
Q 1584 409 2034 409 
Q 2484 409 2743 651 
Q 3003 894 3003 1313 
Q 3003 1734 2745 1975 
Q 2488 2216 2034 2216 
z
M 1403 2484 
Q 997 2584 770 2862 
Q 544 3141 544 3541 
Q 544 4100 942 4425 
Q 1341 4750 2034 4750 
Q 2731 4750 3128 4425 
Q 3525 4100 3525 3541 
Q 3525 3141 3298 2862 
Q 3072 2584 2669 2484 
Q 3125 2378 3379 2068 
Q 3634 1759 3634 1313 
Q 3634 634 3220 271 
Q 2806 -91 2034 -91 
Q 1263 -91 848 271 
Q 434 634 434 1313 
Q 434 1759 690 2068 
Q 947 2378 1403 2484 
z
M 1172 3481 
Q 1172 3119 1398 2916 
Q 1625 2713 2034 2713 
Q 2441 2713 2670 2916 
Q 2900 3119 2900 3481 
Q 2900 3844 2670 4047 
Q 2441 4250 2034 4250 
Q 1625 4250 1398 4047 
Q 1172 3844 1172 3481 
z
" transform="scale(0.015625)"/>
       </defs>
       <use xlink:href="#DejaVuSans-38"/>
       <use xlink:href="#DejaVuSans-30" x="63.623047"/>
       <use xlink:href="#DejaVuSans-30" x="127.246094"/>
      </g>
     </g>
    </g>
    <g id="xtick_9">
     <g id="line2d_14">
      <g>
       <use xlink:href="#mbbfcc9a5e8" x="518.4" y="378" style="stroke: #000000; stroke-width: 0.8"/>
      </g>
     </g>
     <g id="text_9">
      <!-- 850 -->
      <g transform="translate(501.22125 398.677188) scale(0.18 -0.18)">
       <use xlink:href="#DejaVuSans-38"/>
       <use xlink:href="#DejaVuSans-35" x="63.623047"/>
       <use xlink:href="#DejaVuSans-30" x="127.246094"/>
      </g>
     </g>
    </g>
    <g id="text_10">
     <!-- Wavelength (nm) -->
     <g transform="translate(201.904875 422.83325) scale(0.216 -0.216)">
      <defs>
       <path id="DejaVuSans-57" d="M 213 4666 
L 850 4666 
L 1831 722 
L 2809 4666 
L 3519 4666 
L 4500 722 
L 5478 4666 
L 6119 4666 
L 4947 0 
L 4153 0 
L 3169 4050 
L 2175 0 
L 1381 0 
L 213 4666 
z
" transform="scale(0.015625)"/>
       <path id="DejaVuSans-61" d="M 2194 1759 
Q 1497 1759 1228 1600 
Q 959 1441 959 1056 
Q 959 750 1161 570 
Q 1363 391 1709 391 
Q 2188 391 2477 730 
Q 2766 1069 2766 1631 
L 2766 1759 
L 2194 1759 
z
M 3341 1997 
L 3341 0 
L 2766 0 
L 2766 531 
Q 2569 213 2275 61 
Q 1981 -91 1556 -91 
Q 1019 -91 701 211 
Q 384 513 384 1019 
Q 384 1609 779 1909 
Q 1175 2209 1959 2209 
L 2766 2209 
L 2766 2266 
Q 2766 2663 2505 2880 
Q 2244 3097 1772 3097 
Q 1472 3097 1187 3025 
Q 903 2953 641 2809 
L 641 3341 
Q 956 3463 1253 3523 
Q 1550 3584 1831 3584 
Q 2591 3584 2966 3190 
Q 3341 2797 3341 1997 
z
" transform="scale(0.015625)"/>
       <path id="DejaVuSans-76" d="M 191 3500 
L 800 3500 
L 1894 563 
L 2988 3500 
L 3597 3500 
L 2284 0 
L 1503 0 
L 191 3500 
z
" transform="scale(0.015625)"/>
       <path id="DejaVuSans-65" d="M 3597 1894 
L 3597 1613 
L 953 1613 
Q 991 1019 1311 708 
Q 1631 397 2203 397 
Q 2534 397 2845 478 
Q 3156 559 3463 722 
L 3463 178 
Q 3153 47 2828 -22 
Q 2503 -91 2169 -91 
Q 1331 -91 842 396 
Q 353 884 353 1716 
Q 353 2575 817 3079 
Q 1281 3584 2069 3584 
Q 2775 3584 3186 3129 
Q 3597 2675 3597 1894 
z
M 3022 2063 
Q 3016 2534 2758 2815 
Q 2500 3097 2075 3097 
Q 1594 3097 1305 2825 
Q 1016 2553 972 2059 
L 3022 2063 
z
" transform="scale(0.015625)"/>
       <path id="DejaVuSans-6c" d="M 603 4863 
L 1178 4863 
L 1178 0 
L 603 0 
L 603 4863 
z
" transform="scale(0.015625)"/>
       <path id="DejaVuSans-6e" d="M 3513 2113 
L 3513 0 
L 2938 0 
L 2938 2094 
Q 2938 2591 2744 2837 
Q 2550 3084 2163 3084 
Q 1697 3084 1428 2787 
Q 1159 2491 1159 1978 
L 1159 0 
L 581 0 
L 581 3500 
L 1159 3500 
L 1159 2956 
Q 1366 3272 1645 3428 
Q 1925 3584 2291 3584 
Q 2894 3584 3203 3211 
Q 3513 2838 3513 2113 
z
" transform="scale(0.015625)"/>
       <path id="DejaVuSans-67" d="M 2906 1791 
Q 2906 2416 2648 2759 
Q 2391 3103 1925 3103 
Q 1463 3103 1205 2759 
Q 947 2416 947 1791 
Q 947 1169 1205 825 
Q 1463 481 1925 481 
Q 2391 481 2648 825 
Q 2906 1169 2906 1791 
z
M 3481 434 
Q 3481 -459 3084 -895 
Q 2688 -1331 1869 -1331 
Q 1566 -1331 1297 -1286 
Q 1028 -1241 775 -1147 
L 775 -588 
Q 1028 -725 1275 -790 
Q 1522 -856 1778 -856 
Q 2344 -856 2625 -561 
Q 2906 -266 2906 331 
L 2906 616 
Q 2728 306 2450 153 
Q 2172 0 1784 0 
Q 1141 0 747 490 
Q 353 981 353 1791 
Q 353 2603 747 3093 
Q 1141 3584 1784 3584 
Q 2172 3584 2450 3431 
Q 2728 3278 2906 2969 
L 2906 3500 
L 3481 3500 
L 3481 434 
z
" transform="scale(0.015625)"/>
       <path id="DejaVuSans-74" d="M 1172 4494 
L 1172 3500 
L 2356 3500 
L 2356 3053 
L 1172 3053 
L 1172 1153 
Q 1172 725 1289 603 
Q 1406 481 1766 481 
L 2356 481 
L 2356 0 
L 1766 0 
Q 1100 0 847 248 
Q 594 497 594 1153 
L 594 3053 
L 172 3053 
L 172 3500 
L 594 3500 
L 594 4494 
L 1172 4494 
z
" transform="scale(0.015625)"/>
       <path id="DejaVuSans-68" d="M 3513 2113 
L 3513 0 
L 2938 0 
L 2938 2094 
Q 2938 2591 2744 2837 
Q 2550 3084 2163 3084 
Q 1697 3084 1428 2787 
Q 1159 2491 1159 1978 
L 1159 0 
L 581 0 
L 581 4863 
L 1159 4863 
L 1159 2956 
Q 1366 3272 1645 3428 
Q 1925 3584 2291 3584 
Q 2894 3584 3203 3211 
Q 3513 2838 3513 2113 
z
" transform="scale(0.015625)"/>
       <path id="DejaVuSans-20" transform="scale(0.015625)"/>
       <path id="DejaVuSans-28" d="M 1984 4856 
Q 1566 4138 1362 3434 
Q 1159 2731 1159 2009 
Q 1159 1288 1364 580 
Q 1569 -128 1984 -844 
L 1484 -844 
Q 1016 -109 783 600 
Q 550 1309 550 2009 
Q 550 2706 781 3412 
Q 1013 4119 1484 4856 
L 1984 4856 
z
" transform="scale(0.015625)"/>
       <path id="DejaVuSans-6d" d="M 3328 2828 
Q 3544 3216 3844 3400 
Q 4144 3584 4550 3584 
Q 5097 3584 5394 3201 
Q 5691 2819 5691 2113 
L 5691 0 
L 5113 0 
L 5113 2094 
Q 5113 2597 4934 2840 
Q 4756 3084 4391 3084 
Q 3944 3084 3684 2787 
Q 3425 2491 3425 1978 
L 3425 0 
L 2847 0 
L 2847 2094 
Q 2847 2600 2669 2842 
Q 2491 3084 2119 3084 
Q 1678 3084 1418 2786 
Q 1159 2488 1159 1978 
L 1159 0 
L 581 0 
L 581 3500 
L 1159 3500 
L 1159 2956 
Q 1356 3278 1631 3431 
Q 1906 3584 2284 3584 
Q 2666 3584 2933 3390 
Q 3200 3197 3328 2828 
z
" transform="scale(0.015625)"/>
       <path id="DejaVuSans-29" d="M 513 4856 
L 1013 4856 
Q 1481 4119 1714 3412 
Q 1947 2706 1947 2009 
Q 1947 1309 1714 600 
Q 1481 -109 1013 -844 
L 513 -844 
Q 928 -128 1133 580 
Q 1338 1288 1338 2009 
Q 1338 2731 1133 3434 
Q 928 4138 513 4856 
z
" transform="scale(0.015625)"/>
      </defs>
      <use xlink:href="#DejaVuSans-57"/>
      <use xlink:href="#DejaVuSans-61" x="92.501953"/>
      <use xlink:href="#DejaVuSans-76" x="153.78125"/>
      <use xlink:href="#DejaVuSans-65" x="212.960938"/>
      <use xlink:href="#DejaVuSans-6c" x="274.484375"/>
      <use xlink:href="#DejaVuSans-65" x="302.267578"/>
      <use xlink:href="#DejaVuSans-6e" x="363.791016"/>
      <use xlink:href="#DejaVuSans-67" x="427.169922"/>
      <use xlink:href="#DejaVuSans-74" x="490.646484"/>
      <use xlink:href="#DejaVuSans-68" x="529.855469"/>
      <use xlink:href="#DejaVuSans-20" x="593.234375"/>
      <use xlink:href="#DejaVuSans-28" x="625.021484"/>
      <use xlink:href="#DejaVuSans-6e" x="664.035156"/>
      <use xlink:href="#DejaVuSans-6d" x="727.414062"/>
      <use xlink:href="#DejaVuSans-29" x="824.826172"/>
     </g>
    </g>
   </g>
   <g id="matplotlib.axis_2">
    <g id="ytick_1">
     <g id="line2d_15">
      <defs>
       <path id="mf362acf8b4" d="M 0 0 
L -3.5 0 
" style="stroke: #000000; stroke-width: 0.8"/>
      </defs>
      <g>
       <use xlink:href="#mf362acf8b4" x="72" y="378" style="stroke: #000000; stroke-width: 0.8"/>
      </g>
     </g>
     <g id="text_11">
      <!-- 0.00 -->
      <g transform="translate(24.921875 384.838594) scale(0.18 -0.18)">
       <defs>
        <path id="DejaVuSans-2e" d="M 684 794 
L 1344 794 
L 1344 0 
L 684 0 
L 684 794 
z
" transform="scale(0.015625)"/>
       </defs>
       <use xlink:href="#DejaVuSans-30"/>
       <use xlink:href="#DejaVuSans-2e" x="63.623047"/>
       <use xlink:href="#DejaVuSans-30" x="95.410156"/>
       <use xlink:href="#DejaVuSans-30" x="159.033203"/>
      </g>
     </g>
    </g>
    <g id="ytick_2">
     <g id="line2d_16">
      <g>
       <use xlink:href="#mf362acf8b4" x="72" y="312.768" style="stroke: #000000; stroke-width: 0.8"/>
      </g>
     </g>
     <g id="text_12">
      <!-- 0.05 -->
      <g transform="translate(24.921875 319.606594) scale(0.18 -0.18)">
       <use xlink:href="#DejaVuSans-30"/>
       <use xlink:href="#DejaVuSans-2e" x="63.623047"/>
       <use xlink:href="#DejaVuSans-30" x="95.410156"/>
       <use xlink:href="#DejaVuSans-35" x="159.033203"/>
      </g>
     </g>
    </g>
    <g id="ytick_3">
     <g id="line2d_17">
      <g>
       <use xlink:href="#mf362acf8b4" x="72" y="247.536" style="stroke: #000000; stroke-width: 0.8"/>
      </g>
     </g>
     <g id="text_13">
      <!-- 0.10 -->
      <g transform="translate(24.921875 254.374594) scale(0.18 -0.18)">
       <defs>
        <path id="DejaVuSans-31" d="M 794 531 
L 1825 531 
L 1825 4091 
L 703 3866 
L 703 4441 
L 1819 4666 
L 2450 4666 
L 2450 531 
L 3481 531 
L 3481 0 
L 794 0 
L 794 531 
z
" transform="scale(0.015625)"/>
       </defs>
       <use xlink:href="#DejaVuSans-30"/>
       <use xlink:href="#DejaVuSans-2e" x="63.623047"/>
       <use xlink:href="#DejaVuSans-31" x="95.410156"/>
       <use xlink:href="#DejaVuSans-30" x="159.033203"/>
      </g>
     </g>
    </g>
    <g id="ytick_4">
     <g id="line2d_18">
      <g>
       <use xlink:href="#mf362acf8b4" x="72" y="182.304" style="stroke: #000000; stroke-width: 0.8"/>
      </g>
     </g>
     <g id="text_14">
      <!-- 0.15 -->
      <g transform="translate(24.921875 189.142594) scale(0.18 -0.18)">
       <use xlink:href="#DejaVuSans-30"/>
       <use xlink:href="#DejaVuSans-2e" x="63.623047"/>
       <use xlink:href="#DejaVuSans-31" x="95.410156"/>
       <use xlink:href="#DejaVuSans-35" x="159.033203"/>
      </g>
     </g>
    </g>
    <g id="ytick_5">
     <g id="line2d_19">
      <g>
       <use xlink:href="#mf362acf8b4" x="72" y="117.072" style="stroke: #000000; stroke-width: 0.8"/>
      </g>
     </g>
     <g id="text_15">
      <!-- 0.20 -->
      <g transform="translate(24.921875 123.910594) scale(0.18 -0.18)">
       <defs>
        <path id="DejaVuSans-32" d="M 1228 531 
L 3431 531 
L 3431 0 
L 469 0 
L 469 531 
Q 828 903 1448 1529 
Q 2069 2156 2228 2338 
Q 2531 2678 2651 2914 
Q 2772 3150 2772 3378 
Q 2772 3750 2511 3984 
Q 2250 4219 1831 4219 
Q 1534 4219 1204 4116 
Q 875 4013 500 3803 
L 500 4441 
Q 881 4594 1212 4672 
Q 1544 4750 1819 4750 
Q 2544 4750 2975 4387 
Q 3406 4025 3406 3419 
Q 3406 3131 3298 2873 
Q 3191 2616 2906 2266 
Q 2828 2175 2409 1742 
Q 1991 1309 1228 531 
z
" transform="scale(0.015625)"/>
       </defs>
       <use xlink:href="#DejaVuSans-30"/>
       <use xlink:href="#DejaVuSans-2e" x="63.623047"/>
       <use xlink:href="#DejaVuSans-32" x="95.410156"/>
       <use xlink:href="#DejaVuSans-30" x="159.033203"/>
      </g>
     </g>
    </g>
    <g id="ytick_6">
     <g id="line2d_20">
      <g>
       <use xlink:href="#mf362acf8b4" x="72" y="51.84" style="stroke: #000000; stroke-width: 0.8"/>
      </g>
     </g>
     <g id="text_16">
      <!-- 0.25 -->
      <g transform="translate(24.921875 58.678594) scale(0.18 -0.18)">
       <use xlink:href="#DejaVuSans-30"/>
       <use xlink:href="#DejaVuSans-2e" x="63.623047"/>
       <use xlink:href="#DejaVuSans-32" x="95.410156"/>
       <use xlink:href="#DejaVuSans-35" x="159.033203"/>
      </g>
     </g>
    </g>
    <g id="text_17">
     <!-- Absorption -->
     <g transform="translate(16.42975 273.38175) rotate(-90) scale(0.216 -0.216)">
      <defs>
       <path id="DejaVuSans-41" d="M 2188 4044 
L 1331 1722 
L 3047 1722 
L 2188 4044 
z
M 1831 4666 
L 2547 4666 
L 4325 0 
L 3669 0 
L 3244 1197 
L 1141 1197 
L 716 0 
L 50 0 
L 1831 4666 
z
" transform="scale(0.015625)"/>
       <path id="DejaVuSans-62" d="M 3116 1747 
Q 3116 2381 2855 2742 
Q 2594 3103 2138 3103 
Q 1681 3103 1420 2742 
Q 1159 2381 1159 1747 
Q 1159 1113 1420 752 
Q 1681 391 2138 391 
Q 2594 391 2855 752 
Q 3116 1113 3116 1747 
z
M 1159 2969 
Q 1341 3281 1617 3432 
Q 1894 3584 2278 3584 
Q 2916 3584 3314 3078 
Q 3713 2572 3713 1747 
Q 3713 922 3314 415 
Q 2916 -91 2278 -91 
Q 1894 -91 1617 61 
Q 1341 213 1159 525 
L 1159 0 
L 581 0 
L 581 4863 
L 1159 4863 
L 1159 2969 
z
" transform="scale(0.015625)"/>
       <path id="DejaVuSans-73" d="M 2834 3397 
L 2834 2853 
Q 2591 2978 2328 3040 
Q 2066 3103 1784 3103 
Q 1356 3103 1142 2972 
Q 928 2841 928 2578 
Q 928 2378 1081 2264 
Q 1234 2150 1697 2047 
L 1894 2003 
Q 2506 1872 2764 1633 
Q 3022 1394 3022 966 
Q 3022 478 2636 193 
Q 2250 -91 1575 -91 
Q 1294 -91 989 -36 
Q 684 19 347 128 
L 347 722 
Q 666 556 975 473 
Q 1284 391 1588 391 
Q 1994 391 2212 530 
Q 2431 669 2431 922 
Q 2431 1156 2273 1281 
Q 2116 1406 1581 1522 
L 1381 1569 
Q 847 1681 609 1914 
Q 372 2147 372 2553 
Q 372 3047 722 3315 
Q 1072 3584 1716 3584 
Q 2034 3584 2315 3537 
Q 2597 3491 2834 3397 
z
" transform="scale(0.015625)"/>
       <path id="DejaVuSans-6f" d="M 1959 3097 
Q 1497 3097 1228 2736 
Q 959 2375 959 1747 
Q 959 1119 1226 758 
Q 1494 397 1959 397 
Q 2419 397 2687 759 
Q 2956 1122 2956 1747 
Q 2956 2369 2687 2733 
Q 2419 3097 1959 3097 
z
M 1959 3584 
Q 2709 3584 3137 3096 
Q 3566 2609 3566 1747 
Q 3566 888 3137 398 
Q 2709 -91 1959 -91 
Q 1206 -91 779 398 
Q 353 888 353 1747 
Q 353 2609 779 3096 
Q 1206 3584 1959 3584 
z
" transform="scale(0.015625)"/>
       <path id="DejaVuSans-72" d="M 2631 2963 
Q 2534 3019 2420 3045 
Q 2306 3072 2169 3072 
Q 1681 3072 1420 2755 
Q 1159 2438 1159 1844 
L 1159 0 
L 581 0 
L 581 3500 
L 1159 3500 
L 1159 2956 
Q 1341 3275 1631 3429 
Q 1922 3584 2338 3584 
Q 2397 3584 2469 3576 
Q 2541 3569 2628 3553 
L 2631 2963 
z
" transform="scale(0.015625)"/>
       <path id="DejaVuSans-70" d="M 1159 525 
L 1159 -1331 
L 581 -1331 
L 581 3500 
L 1159 3500 
L 1159 2969 
Q 1341 3281 1617 3432 
Q 1894 3584 2278 3584 
Q 2916 3584 3314 3078 
Q 3713 2572 3713 1747 
Q 3713 922 3314 415 
Q 2916 -91 2278 -91 
Q 1894 -91 1617 61 
Q 1341 213 1159 525 
z
M 3116 1747 
Q 3116 2381 2855 2742 
Q 2594 3103 2138 3103 
Q 1681 3103 1420 2742 
Q 1159 2381 1159 1747 
Q 1159 1113 1420 752 
Q 1681 391 2138 391 
Q 2594 391 2855 752 
Q 3116 1113 3116 1747 
z
" transform="scale(0.015625)"/>
       <path id="DejaVuSans-69" d="M 603 3500 
L 1178 3500 
L 1178 0 
L 603 0 
L 603 3500 
z
M 603 4863 
L 1178 4863 
L 1178 4134 
L 603 4134 
L 603 4863 
z
" transform="scale(0.015625)"/>
      </defs>
      <use xlink:href="#DejaVuSans-41"/>
      <use xlink:href="#DejaVuSans-62" x="68.408203"/>
      <use xlink:href="#DejaVuSans-73" x="131.884766"/>
      <use xlink:href="#DejaVuSans-6f" x="183.984375"/>
      <use xlink:href="#DejaVuSans-72" x="245.166016"/>
      <use xlink:href="#DejaVuSans-70" x="286.279297"/>
      <use xlink:href="#DejaVuSans-74" x="349.755859"/>
      <use xlink:href="#DejaVuSans-69" x="388.964844"/>
      <use xlink:href="#DejaVuSans-6f" x="416.748047"/>
      <use xlink:href="#DejaVuSans-6e" x="477.929688"/>
     </g>
    </g>
   </g>
   <g id="line2d_21">
    <path d="M 574.187399 374.327693 
L 573.075418 374.440262 
L 571.962823 375.028131 
L 570.849752 376.3413 
L 569.736 374.59341 
L 568.621839 376.628385 
L 567.507065 377.538015 
L 566.391883 374.963792 
L 565.276019 375.868638 
L 564.15961 375.976496 
L 563.042657 375.365012 
L 561.925158 376.337642 
L 560.807114 374.787852 
L 559.688662 375.188214 
L 558.569597 375.320122 
L 557.449919 375.660324 
L 556.3299 375.092665 
L 555.246527 375.872199 
L 554.125283 373.982846 
L 553.003561 375.147077 
L 551.88143 375.188383 
L 550.758687 373.967303 
L 549.635331 376.185812 
L 548.548893 375.517232 
L 547.424582 375.385743 
L 546.299659 373.424806 
L 545.174191 374.704431 
L 544.085914 374.188583 
L 542.959425 374.527222 
L 541.832322 374.322323 
L 540.704878 375.973276 
L 539.614422 375.239392 
L 538.48582 375.869283 
L 537.35681 373.786223 
L 536.264923 374.024544 
L 535.134823 376.997001 
L 534.041846 372.295784 
L 532.910725 374.149075 
L 531.779126 371.382816 
L 530.684651 372.222263 
L 529.552031 372.677147 
L 528.456465 374.977848 
L 527.322823 374.44903 
L 526.226509 374.794747 
L 525.091709 372.761209 
L 523.994372 373.607263 
L 522.858619 374.853705 
L 520.623554 374.723217 
L 519.524106 376.174496 
L 518.386309 372.520786 
L 517.285975 372.30247 
L 516.185301 372.697737 
L 515.045938 371.85524 
L 513.944174 373.456945 
L 512.803993 370.872552 
L 511.701071 373.290548 
L 510.598013 376.536431 
L 509.456061 374.528547 
L 508.351913 373.879917 
L 507.247152 376.731223 
L 506.142119 373.657802 
L 504.99826 378.460663 
L 502.785672 371.548203 
L 501.678527 373.234937 
L 500.532897 372.67333 
L 499.424799 374.647632 
L 498.316291 374.419327 
L 497.207239 373.59974 
L 496.097846 373.940467 
L 494.949696 372.939312 
L 493.839418 374.473022 
L 492.728458 373.005618 
L 491.61709 374.292104 
L 490.505381 371.765684 
L 489.393059 372.761993 
L 488.280329 372.647113 
L 487.16719 371.913582 
L 486.053506 371.927954 
L 484.900996 373.745018 
L 482.671312 371.818674 
L 481.555789 370.462423 
L 480.439789 373.875733 
L 478.206494 372.201691 
L 477.0892 371.973967 
L 476.009914 371.99977 
L 474.891667 373.485133 
L 473.772874 373.565976 
L 472.653604 373.469507 
L 470.413907 372.04117 
L 469.293343 371.873504 
L 468.172371 371.33901 
L 467.050922 370.275836 
L 465.928996 373.551851 
L 464.845351 371.603093 
L 463.722539 372.80286 
L 462.599251 372.023662 
L 461.475486 371.721702 
L 460.35138 372.015402 
L 459.265623 371.401507 
L 458.140496 369.912721 
L 457.014891 370.952369 
L 455.889015 370.873988 
L 454.801487 372.079428 
L 453.674657 371.939866 
L 452.547281 371.610743 
L 451.458459 369.070358 
L 450.330335 371.959153 
L 449.201802 369.055571 
L 448.072655 372.687613 
L 446.98213 371.459794 
L 445.852235 372.673738 
L 444.760824 371.343659 
L 443.630044 371.035079 
L 442.498717 371.605484 
L 441.406149 370.960472 
L 440.274006 370.844372 
L 439.180552 369.68483 
L 438.047591 369.649118 
L 436.914154 369.453075 
L 435.819406 369.768581 
L 434.685151 369.551568 
L 433.589517 370.803055 
L 432.454445 370.183255 
L 431.357994 368.725488 
L 429.124768 366.9318 
L 427.987925 369.254425 
L 426.889839 370.303121 
L 425.791413 369.031931 
L 424.653207 369.045551 
L 423.553964 368.61377 
L 422.415009 367.566653 
L 421.31488 368.356603 
L 420.175039 368.137913 
L 419.074161 367.084236 
L 417.972806 369.280046 
L 416.831671 367.672423 
L 415.729567 369.402605 
L 414.627054 369.623104 
L 413.484693 369.666356 
L 412.381362 368.061138 
L 411.277623 368.607967 
L 410.134036 367.884726 
L 409.02948 367.559189 
L 407.924446 367.766686 
L 406.81914 367.65134 
L 405.673919 368.819508 
L 404.567728 367.371368 
L 403.461264 367.680436 
L 402.354255 368.299165 
L 401.207399 368.101588 
L 400.099641 366.278959 
L 398.991474 364.696671 
L 397.882967 367.247199 
L 396.774051 366.381004 
L 395.625151 366.939168 
L 394.515418 368.060828 
L 393.405275 367.20882 
L 392.294793 367.484089 
L 391.183901 365.906409 
L 388.961029 366.169275 
L 387.8092 365.953086 
L 386.69681 366.919368 
L 385.583944 366.301645 
L 384.470736 366.249239 
L 382.243232 366.969509 
L 381.128799 366.392484 
L 380.014093 366.449841 
L 378.89891 365.213733 
L 377.783387 366.618636 
L 376.667591 365.44671 
L 375.551251 367.044608 
L 374.434638 365.931455 
L 373.317548 366.049222 
L 372.200186 365.331788 
L 371.082346 366.637311 
L 369.964235 365.65764 
L 368.845715 364.896681 
L 367.726786 365.894195 
L 366.607448 365.900335 
L 365.527753 366.106717 
L 364.407735 364.530206 
L 363.287307 365.445778 
L 361.045294 364.949351 
L 359.923777 365.416255 
L 358.801851 365.429067 
L 357.679652 363.988806 
L 356.597097 365.146614 
L 355.474013 364.790739 
L 354.350588 365.59651 
L 353.226891 365.324086 
L 352.102786 364.452005 
L 351.018391 365.242715 
L 349.893536 363.996249 
L 348.768341 365.751929 
L 347.642804 365.281814 
L 346.516792 365.037192 
L 345.430762 365.989617 
L 344.304068 365.917379 
L 343.177102 364.876531 
L 340.96213 364.992202 
L 339.834006 365.544314 
L 338.705473 365.825948 
L 337.616991 365.123086 
L 336.487777 363.548162 
L 335.358222 363.742968 
L 334.268719 364.726645 
L 333.138415 364.667593 
L 332.00777 364.173597 
L 330.917177 363.363029 
L 329.785919 365.64701 
L 328.694645 364.422189 
L 327.56257 365.28392 
L 325.337858 363.3553 
L 324.204829 364.552961 
L 323.111716 364.819015 
L 321.978006 363.198597 
L 320.884348 363.62926 
L 319.74982 363.094347 
L 318.655617 364.865954 
L 317.520341 361.982015 
L 316.384792 363.522041 
L 315.28943 363.434899 
L 314.153336 362.705019 
L 313.057294 363.981502 
L 310.823728 362.293203 
L 309.726732 363.41442 
L 308.58873 362.343546 
L 307.49119 362.681566 
L 306.352507 361.175643 
L 305.254217 361.712402 
L 304.114854 362.435055 
L 303.015951 361.111868 
L 301.875906 361.42169 
L 300.776254 362.180729 
L 299.676397 362.299592 
L 298.535399 361.050176 
L 297.434725 360.789972 
L 296.333914 359.219488 
L 295.191894 360.687507 
L 294.090335 358.519109 
L 292.947634 359.73627 
L 291.845461 360.402122 
L 290.742948 359.299845 
L 289.640094 357.605115 
L 288.496099 358.395432 
L 287.392632 358.160795 
L 286.288824 357.194584 
L 285.143807 356.605794 
L 284.039387 357.085929 
L 282.934626 355.692009 
L 281.788655 354.550531 
L 280.683281 353.896827 
L 279.577567 354.257847 
L 278.47158 353.383685 
L 277.324247 350.868226 
L 275.110706 350.217565 
L 274.003493 349.611856 
L 272.895803 348.307709 
L 271.746971 345.889094 
L 270.638736 345.613358 
L 269.530229 344.450908 
L 268.421381 342.999577 
L 267.312329 342.390198 
L 263.941987 337.703438 
L 262.831641 335.15333 
L 261.721022 334.194698 
L 260.610062 331.753059 
L 259.498762 331.12966 
L 258.38719 328.606584 
L 257.275345 327.292902 
L 256.121949 325.13357 
L 255.00956 324.787852 
L 253.896761 321.928652 
L 252.783622 320.269616 
L 251.670278 317.943221 
L 250.556594 317.19082 
L 249.44257 315.706161 
L 248.328272 313.805061 
L 247.213771 312.495052 
L 246.098861 311.774587 
L 244.983678 311.676226 
L 243.868223 310.058895 
L 242.752496 308.084201 
L 241.636359 308.49211 
L 240.520019 307.435147 
L 239.403406 307.497838 
L 238.286452 306.939313 
L 237.169226 307.840615 
L 236.051659 306.301596 
L 234.933888 306.539253 
L 233.815777 305.319902 
L 232.697325 305.917386 
L 231.5786 305.309078 
L 230.459603 305.926168 
L 229.340402 305.438222 
L 228.220792 305.90438 
L 227.142391 305.107891 
L 226.022304 304.06283 
L 224.901877 303.854543 
L 222.660204 300.112811 
L 221.538891 299.668543 
L 220.417374 296.985525 
L 219.295448 295.247487 
L 218.214868 293.353189 
L 214.846774 284.347414 
L 213.723554 281.204076 
L 212.600061 277.669056 
L 211.517846 275.220933 
L 210.39374 270.152619 
L 209.269294 267.383736 
L 208.144644 262.87227 
L 207.01972 259.332362 
L 204.810675 253.629106 
L 203.684867 248.802449 
L 202.558922 245.866377 
L 201.474255 243.671624 
L 200.347697 239.317366 
L 198.093696 236.164802 
L 197.008007 233.516412 
L 195.880359 233.142801 
L 194.752303 231.71923 
L 193.62411 231.134349 
L 192.537332 231.1677 
L 189.192125 234.683152 
L 188.062433 237.454873 
L 186.932674 239.102507 
L 185.844397 242.215082 
L 184.714025 245.838023 
L 182.494285 253.894451 
L 180.231702 260.362104 
L 179.141926 263.655613 
L 178.009919 266.258394 
L 176.919667 271.076157 
L 173.563288 280.47056 
L 170.204594 289.429891 
L 169.112571 291.120411 
L 167.978248 293.915588 
L 165.750812 296.742653 
L 164.615807 298.485716 
L 163.52249 298.890217 
L 162.386804 300.63436 
L 161.293078 300.855138 
L 160.156916 301.749587 
L 159.062645 301.776673 
L 156.831258 301.470522 
L 155.694074 302.055472 
L 154.598781 300.763339 
L 153.461257 300.253493 
L 152.365419 300.452069 
L 151.227349 299.928922 
L 150.131103 299.578294 
L 148.992352 299.390158 
L 147.895765 298.634801 
L 146.756538 298.694353 
L 145.659406 297.194949 
L 143.422093 296.332907 
L 142.324211 294.776343 
L 141.183792 294.878037 
L 140.085434 293.927884 
L 138.944504 293.703889 
L 137.845669 292.324624 
L 136.746629 290.21299 
L 135.605018 288.56172 
L 134.505502 288.463865 
L 132.263387 283.479837 
L 131.163156 281.763451 
L 128.91961 278.597775 
L 128.91961 278.597775 
" clip-path="url(#p8833b43e9f)" style="fill: none; stroke: #377eb8; stroke-width: 3; stroke-linecap: square"/>
   </g>
   <g id="patch_3">
    <path d="M 72 378 
L 72 51.84 
" style="fill: none; stroke: #000000; stroke-width: 0.8; stroke-linejoin: miter; stroke-linecap: square"/>
   </g>
   <g id="patch_4">
    <path d="M 518.4 378 
L 518.4 51.84 
" style="fill: none; stroke: #000000; stroke-width: 0.8; stroke-linejoin: miter; stroke-linecap: square"/>
   </g>
   <g id="patch_5">
    <path d="M 72 378 
L 518.4 378 
" style="fill: none; stroke: #000000; stroke-width: 0.8; stroke-linejoin: miter; stroke-linecap: square"/>
   </g>
   <g id="patch_6">
    <path d="M 72 51.84 
L 518.4 51.84 
" style="fill: none; stroke: #000000; stroke-width: 0.8; stroke-linejoin: miter; stroke-linecap: square"/>
   </g>
   <g id="line2d_22">
    <path d="M 127.8 334.115622 
L 128.916 336.269598 
L 130.032 337.111237 
L 131.148 338.098076 
L 132.264 338.76211 
L 134.496 340.523837 
L 135.612 340.857093 
L 137.844 341.231272 
L 138.96 341.010759 
L 140.076 341.146798 
L 141.192 340.050977 
L 142.308 339.929125 
L 143.424 339.028865 
L 144.54 338.609496 
L 146.772 336.325324 
L 147.888 334.816084 
L 149.004 333.085078 
L 150.12 331.751411 
L 152.352 328.219696 
L 157.932 319.329977 
L 160.164 316.382905 
L 161.28 315.541329 
L 162.396 314.138225 
L 163.512 313.83808 
L 164.628 313.275327 
L 165.744 312.993093 
L 166.86 313.084639 
L 167.976 312.877518 
L 171.324 315.039066 
L 173.556 317.253195 
L 174.672 318.692489 
L 175.788 319.660774 
L 176.904 321.295869 
L 178.02 322.310059 
L 179.136 323.655663 
L 180.252 325.211828 
L 181.368 326.522537 
L 182.484 328.275223 
L 183.6 328.783207 
L 184.716 330.180242 
L 185.832 331.065933 
L 186.948 331.502177 
L 188.064 332.688907 
L 189.18 333.004244 
L 191.412 334.352147 
L 192.528 334.289626 
L 194.76 334.628719 
L 195.876 334.509451 
L 199.224 334.741402 
L 200.34 334.594446 
L 202.572 335.141496 
L 203.688 335.072355 
L 204.804 335.475345 
L 205.92 335.736049 
L 208.152 336.63341 
L 209.268 337.475526 
L 211.5 338.712486 
L 213.732 340.434349 
L 214.848 341.442872 
L 215.964 342.156429 
L 217.08 343.415135 
L 218.196 344.267025 
L 220.428 346.811787 
L 221.544 347.687731 
L 222.66 348.70819 
L 224.892 350.566367 
L 227.124 352.439704 
L 228.24 353.755217 
L 229.356 354.24274 
L 230.472 355.398331 
L 232.704 356.434163 
L 233.82 357.174577 
L 234.936 357.635082 
L 236.052 358.330015 
L 237.168 358.735847 
L 238.284 359.268534 
L 241.632 360.303384 
L 242.748 360.04057 
L 243.864 360.44908 
L 244.98 360.284464 
L 246.096 360.573077 
L 247.212 361.09809 
L 248.328 360.691649 
L 249.444 360.927746 
L 251.676 360.786734 
L 257.256 361.186114 
L 258.372 361.488107 
L 259.488 361.509872 
L 260.604 361.340661 
L 261.72 361.377908 
L 262.836 361.808531 
L 263.952 361.890571 
L 268.416 363.152663 
L 270.648 363.720769 
L 271.764 364.125701 
L 275.112 365.013869 
L 276.228 365.570792 
L 281.808 367.10238 
L 282.924 367.595789 
L 284.04 367.510683 
L 285.156 368.213373 
L 286.272 368.408369 
L 287.388 368.913512 
L 288.504 368.904315 
L 290.736 369.390775 
L 291.852 369.484239 
L 292.968 370.020416 
L 294.084 370.21366 
L 295.2 370.288194 
L 296.316 370.659621 
L 297.432 370.518067 
L 298.548 370.893722 
L 299.664 370.957942 
L 300.78 371.134459 
L 301.896 371.520363 
L 303.012 371.494571 
L 304.128 371.984923 
L 305.244 371.886614 
L 306.36 371.989156 
L 307.476 371.7202 
L 308.592 372.186439 
L 309.708 372.149656 
L 315.288 372.921729 
L 316.404 372.504316 
L 317.52 373.0619 
L 318.636 372.833329 
L 319.752 373.175061 
L 321.984 373.206498 
L 323.1 373.449966 
L 324.216 373.262045 
L 325.332 373.440502 
L 328.68 373.435054 
L 329.796 373.487992 
L 330.912 373.780064 
L 332.028 373.828308 
L 333.144 373.661 
L 334.26 373.98618 
L 336.492 373.810719 
L 339.84 374.009376 
L 342.072 374.098239 
L 343.188 374.012743 
L 345.42 374.323818 
L 346.536 373.998764 
L 347.652 374.316952 
L 348.768 374.09732 
L 349.884 374.47411 
L 353.232 374.340338 
L 354.348 374.420992 
L 355.464 374.331025 
L 358.812 374.662512 
L 359.928 374.505849 
L 361.044 374.855199 
L 362.16 374.474552 
L 363.276 374.75168 
L 365.508 374.435368 
L 367.74 374.869904 
L 371.088 374.799672 
L 372.204 374.843788 
L 374.436 374.579412 
L 376.668 374.925933 
L 377.784 375.051114 
L 378.9 374.792098 
L 381.132 374.652083 
L 382.248 374.787038 
L 384.48 374.835502 
L 385.596 374.506936 
L 386.712 375.061943 
L 388.944 374.901213 
L 390.06 374.645594 
L 391.176 375.071346 
L 392.292 374.736939 
L 393.408 374.826808 
L 394.524 374.553895 
L 395.64 374.966611 
L 396.756 375.0559 
L 398.988 374.889599 
L 400.104 375.113778 
L 401.22 374.529091 
L 402.336 374.850139 
L 403.452 374.885185 
L 404.568 375.123452 
L 405.684 375.039232 
L 406.8 375.2511 
L 410.148 374.742951 
L 412.38 375.042117 
L 413.496 374.851464 
L 414.612 375.155698 
L 415.728 375.281812 
L 416.844 374.79777 
L 417.96 374.742407 
L 419.076 375.152881 
L 420.192 374.984368 
L 421.308 375.117987 
L 422.424 375.042423 
L 423.54 375.285477 
L 424.656 375.033766 
L 425.772 375.223272 
L 426.888 374.929431 
L 428.004 375.258329 
L 429.12 374.982772 
L 431.352 375.002837 
L 432.468 374.843381 
L 433.584 375.022325 
L 434.7 375.47551 
L 435.816 374.881823 
L 438.048 375.027723 
L 439.164 375.278894 
L 440.28 375.044494 
L 441.396 375.013736 
L 443.628 375.509906 
L 444.744 375.042151 
L 445.86 375.304276 
L 448.092 374.88471 
L 449.208 375.147111 
L 450.324 374.950075 
L 451.44 375.223951 
L 452.556 375.329488 
L 453.672 375.069581 
L 454.788 375.082515 
L 455.904 375.406405 
L 457.02 375.036584 
L 458.136 375.216111 
L 459.252 374.905797 
L 460.368 375.475408 
L 461.484 375.175418 
L 463.716 375.411324 
L 464.832 375.115408 
L 467.064 375.079527 
L 468.18 375.564346 
L 469.296 375.376141 
L 472.644 375.369287 
L 473.76 375.220184 
L 474.876 375.584018 
L 477.108 375.158651 
L 478.224 375.382214 
L 479.34 375.264573 
L 480.456 375.793039 
L 481.572 375.115883 
L 484.92 375.433003 
L 486.036 375.379059 
L 487.152 375.543927 
L 488.268 374.844807 
L 489.384 375.251983 
L 490.5 375.219369 
L 491.616 375.316627 
L 492.732 375.188926 
L 493.848 375.183564 
L 494.964 375.376277 
L 496.08 375.147891 
L 498.312 375.329793 
L 499.428 375.330573 
L 500.544 375.492674 
L 501.66 374.482401 
L 502.776 375.171481 
L 505.008 374.451409 
L 506.124 374.649501 
L 507.24 375.383402 
L 508.356 375.39185 
L 509.472 375.074605 
L 510.588 375.291178 
L 511.704 374.449472 
L 512.82 375.903622 
L 513.936 374.888411 
L 515.052 374.47428 
L 516.168 374.951807 
L 517.284 375.184412 
L 518.4 375.632041 
L 519.516 375.332236 
L 520.632 374.669816 
L 521.748 375.091544 
L 522.864 374.020089 
L 523.98 374.645764 
L 525.096 375.107431 
L 526.212 374.266607 
L 527.328 373.840828 
L 528.444 374.344145 
L 529.56 373.601783 
L 530.676 374.852584 
L 531.792 374.845486 
L 532.908 374.368448 
L 534.024 375.254528 
L 535.14 374.100755 
L 536.256 374.701069 
L 537.372 375.067578 
L 538.488 372.70943 
L 539.604 374.010702 
L 540.72 374.090723 
L 541.836 376.155929 
L 542.952 372.91931 
L 544.068 373.151695 
L 545.184 374.691761 
L 546.3 372.963913 
L 547.416 373.05369 
L 548.532 375.650693 
L 549.648 373.307167 
L 550.764 376.520178 
L 551.88 374.654835 
L 552.996 373.494426 
L 554.112 374.041583 
L 555.228 373.731475 
L 556.344 373.265859 
L 557.46 374.926952 
L 558.576 375.67494 
L 559.692 372.973624 
L 560.808 375.070871 
L 561.924 375.558444 
L 563.04 375.458887 
L 564.156 376.328836 
L 565.272 376.13011 
L 566.388 377.440935 
L 567.504 379.778941 
L 568.62 376.665149 
L 569.736 373.06098 
L 570.852 374.211804 
L 571.968 372.885505 
L 573.084 375.939992 
L 574.2 370.264606 
L 574.2 370.264606 
" clip-path="url(#p8833b43e9f)" style="fill: none; stroke: #a65628; stroke-width: 3; stroke-linecap: square"/>
   </g>
   <g id="line2d_23">
    <path d="M 127.8 340.967283 
L 128.916 339.724184 
L 130.032 338.647726 
L 131.148 336.93178 
L 132.264 335.854258 
L 133.38 333.481045 
L 134.496 331.808386 
L 140.076 319.974721 
L 141.192 317.079897 
L 144.54 310.433386 
L 145.656 307.465173 
L 146.772 306.847383 
L 147.888 305.311032 
L 149.004 304.169448 
L 150.12 303.660117 
L 151.236 303.419053 
L 153.468 304.345468 
L 154.584 305.783323 
L 155.7 306.871241 
L 160.164 316.129866 
L 162.396 322.040869 
L 163.512 324.290308 
L 164.628 327.487804 
L 165.744 330.144597 
L 166.86 332.339938 
L 167.976 335.044992 
L 170.208 338.662497 
L 171.324 340.07026 
L 173.556 341.780376 
L 174.672 342.369914 
L 176.904 342.672539 
L 178.02 342.209492 
L 179.136 342.193519 
L 180.252 340.875195 
L 181.368 340.768993 
L 182.484 339.167295 
L 183.6 338.494938 
L 185.832 336.210882 
L 186.948 335.600888 
L 188.064 333.939121 
L 189.18 333.718673 
L 190.296 332.75117 
L 192.528 331.577252 
L 194.76 331.733783 
L 195.876 331.671519 
L 196.992 332.564035 
L 198.108 333.031189 
L 199.224 333.831905 
L 200.34 334.83897 
L 201.456 336.167802 
L 202.572 337.141472 
L 205.92 342.07497 
L 207.036 343.060249 
L 208.152 344.308494 
L 209.268 345.75952 
L 210.384 346.896562 
L 211.5 347.758128 
L 212.616 349.137034 
L 213.732 350.204797 
L 214.848 350.225227 
L 215.964 350.957075 
L 217.08 350.929124 
L 218.196 351.158347 
L 219.312 350.739289 
L 220.428 350.124699 
L 221.544 349.881006 
L 222.66 349.107183 
L 227.124 346.665182 
L 228.24 346.679887 
L 229.356 345.807278 
L 230.472 346.212497 
L 231.588 345.907359 
L 232.704 345.91808 
L 233.82 346.668181 
L 234.936 346.891355 
L 236.052 347.647399 
L 238.284 349.330748 
L 239.4 350.21948 
L 240.516 351.356362 
L 241.632 352.69671 
L 246.096 357.329242 
L 247.212 358.171043 
L 248.328 359.304942 
L 249.444 360.176749 
L 250.56 361.435322 
L 251.676 362.323409 
L 252.792 363.579722 
L 253.908 364.034465 
L 256.14 366.155102 
L 257.256 366.219034 
L 258.372 367.708534 
L 260.604 368.646697 
L 261.72 369.042155 
L 262.836 369.997878 
L 263.952 370.520292 
L 265.068 370.638204 
L 266.184 371.222168 
L 267.3 371.567092 
L 268.416 372.271528 
L 269.532 372.239289 
L 270.648 372.957337 
L 271.764 372.767139 
L 272.88 372.861888 
L 273.996 373.501405 
L 275.112 373.311662 
L 276.228 372.957098 
L 277.344 373.307031 
L 278.46 372.936381 
L 279.576 373.163548 
L 280.692 372.813766 
L 281.808 372.32304 
L 282.924 372.428913 
L 284.04 371.406974 
L 285.156 371.400653 
L 286.272 370.868517 
L 287.388 370.594306 
L 288.504 370.073057 
L 289.62 369.967461 
L 290.736 370.090934 
L 291.852 369.29613 
L 292.968 369.438743 
L 294.084 369.190458 
L 295.2 369.490307 
L 296.316 369.336768 
L 297.432 369.905938 
L 299.664 370.440997 
L 300.78 371.09354 
L 304.128 372.445045 
L 305.244 373.180681 
L 306.36 373.193794 
L 307.476 374.066137 
L 313.056 375.848773 
L 314.172 376.519637 
L 315.288 376.499354 
L 317.52 377.397899 
L 318.636 377.116853 
L 319.752 377.61291 
L 320.868 377.969334 
L 321.984 377.895872 
L 324.216 378.396546 
L 325.332 378.239189 
L 327.564 378.700671 
L 328.68 378.53186 
L 329.796 379.18038 
L 330.912 378.553993 
L 333.144 379.144048 
L 334.26 378.996137 
L 336.492 379.303647 
L 337.608 379.343742 
L 338.724 379.198241 
L 339.84 379.786818 
L 340.956 379.262808 
L 342.072 379.554209 
L 343.188 379.605534 
L 344.304 379.775709 
L 345.42 379.687833 
L 347.652 379.958352 
L 348.768 379.601628 
L 349.884 379.57152 
L 351 379.906655 
L 352.116 379.83341 
L 353.232 379.574619 
L 354.348 380.109377 
L 357.696 379.830717 
L 359.928 380.037908 
L 361.044 380.061866 
L 362.16 379.840142 
L 364.392 380.420117 
L 365.508 380.135015 
L 366.624 380.22558 
L 368.856 380.007218 
L 369.972 379.958689 
L 372.204 380.203983 
L 373.32 380.184269 
L 374.436 380.492749 
L 375.552 379.845259 
L 376.668 380.296689 
L 377.784 379.900462 
L 378.9 380.652775 
L 380.016 380.100831 
L 381.132 380.364023 
L 382.248 380.470019 
L 383.364 380.230357 
L 384.48 380.581307 
L 385.596 380.179425 
L 386.712 380.639194 
L 387.828 380.501558 
L 388.944 380.498666 
L 390.06 380.328844 
L 391.176 380.275431 
L 392.292 380.587963 
L 393.408 380.368866 
L 394.524 380.655396 
L 395.64 380.39772 
L 396.756 379.926715 
L 397.872 380.530675 
L 398.988 380.713008 
L 400.104 380.589106 
L 401.22 380.693782 
L 402.336 380.280275 
L 403.452 380.933853 
L 404.568 380.618487 
L 405.684 380.565775 
L 406.8 380.653447 
L 407.916 380.311085 
L 409.032 380.709916 
L 410.148 380.895753 
L 411.264 380.648338 
L 413.496 380.653917 
L 415.728 380.804623 
L 416.844 380.730014 
L 419.076 380.915778 
L 420.192 381.15824 
L 421.308 380.956766 
L 422.424 380.907042 
L 423.54 381.160457 
L 424.656 380.793331 
L 425.772 381.25482 
L 426.888 380.621109 
L 428.004 381.259789 
L 429.12 380.880767 
L 430.236 381.151254 
L 431.352 381.278861 
L 432.468 381.139097 
L 433.584 381.218151 
L 434.7 380.849181 
L 435.816 381.32815 
L 436.932 380.945747 
L 438.048 381.26402 
L 439.164 380.775386 
L 440.28 381.096307 
L 441.396 381.022611 
L 444.744 381.243739 
L 445.86 381.459678 
L 446.976 381.11431 
L 448.092 381.455382 
L 449.208 380.866722 
L 450.324 381.305722 
L 451.44 381.259722 
L 452.556 381.084887 
L 453.672 381.352793 
L 454.788 381.068026 
L 455.904 381.545534 
L 457.02 381.08791 
L 458.136 381.582517 
L 460.368 381.298604 
L 461.484 381.597485 
L 462.6 382.098621 
L 463.716 381.269527 
L 464.832 381.813759 
L 468.18 381.503514 
L 469.296 381.769679 
L 470.412 381.406641 
L 471.528 381.622451 
L 472.644 382.184984 
L 473.76 381.559294 
L 474.876 382.087959 
L 475.992 381.270064 
L 479.34 381.915862 
L 481.572 381.753039 
L 482.688 381.828385 
L 483.804 381.364543 
L 484.92 382.190013 
L 486.036 381.716469 
L 487.152 381.745725 
L 488.268 381.550233 
L 489.384 381.578222 
L 490.5 382.123566 
L 491.616 381.656074 
L 492.732 382.172983 
L 493.848 382.182905 
L 494.964 382.030085 
L 496.08 382.129936 
L 497.196 382.059191 
L 498.312 382.582364 
L 499.428 382.379788 
L 500.544 381.615471 
L 501.66 381.948998 
L 502.776 382.440843 
L 503.892 382.645676 
L 505.008 382.530504 
L 506.124 382.881707 
L 507.24 383.061812 
L 508.356 381.971266 
L 509.472 382.960518 
L 510.588 382.476294 
L 512.82 383.192001 
L 515.052 382.571711 
L 516.168 382.580421 
L 517.284 383.563796 
L 518.4 382.822976 
L 519.516 383.263208 
L 520.632 383.935682 
L 521.748 383.562057 
L 522.864 384.379258 
L 523.98 383.385122 
L 525.096 383.643784 
L 526.212 384.362293 
L 527.328 383.777784 
L 528.444 383.892167 
L 529.56 383.077008 
L 530.676 384.176855 
L 531.792 384.814612 
L 532.908 385.138591 
L 534.024 384.200706 
L 535.14 384.897626 
L 536.256 384.386938 
L 537.372 383.479784 
L 538.488 383.566672 
L 539.604 385.848214 
L 540.72 384.37171 
L 541.836 385.461384 
L 542.952 385.475716 
L 544.068 382.576468 
L 545.184 382.092318 
L 546.3 385.532572 
L 547.416 384.486842 
L 548.532 385.020789 
L 549.648 384.586328 
L 550.764 385.59029 
L 551.88 387.861058 
L 552.996 385.032264 
L 554.112 385.816637 
L 555.228 384.034529 
L 556.344 385.177741 
L 557.46 388.132746 
L 559.692 383.444731 
L 561.924 382.721908 
L 563.04 386.581566 
L 565.272 386.796345 
L 566.388 381.662986 
L 567.504 388.53831 
L 568.62 384.416991 
L 569.736 389.251638 
L 570.852 388.161208 
L 571.968 384.090194 
L 573.084 384.268981 
L 574.2 385.797984 
L 574.2 385.797984 
" clip-path="url(#p8833b43e9f)" style="fill: none; stroke: #984ea3; stroke-width: 3; stroke-linecap: square"/>
   </g>
   <g id="legend_1">
    <g id="patch_7">
     <path d="M 374.740313 171.9225 
L 505.8 171.9225 
Q 509.4 171.9225 509.4 168.3225 
L 509.4 64.44 
Q 509.4 60.84 505.8 60.84 
L 374.740313 60.84 
Q 371.140312 60.84 371.140312 64.44 
L 371.140312 168.3225 
Q 371.140312 171.9225 374.740313 171.9225 
z
" style="fill: #ffffff; opacity: 0.8; stroke: #cccccc; stroke-linejoin: miter"/>
    </g>
    <g id="line2d_24">
     <path d="M 378.340312 75.417187 
L 396.340312 75.417187 
L 414.340312 75.417187 
" style="fill: none; stroke: #984ea3; stroke-width: 3; stroke-linecap: square"/>
    </g>
    <g id="text_18">
     <!-- H2-TAPP -->
     <g transform="translate(428.740312 81.717187) scale(0.18 -0.18)">
      <defs>
       <path id="DejaVuSans-48" d="M 628 4666 
L 1259 4666 
L 1259 2753 
L 3553 2753 
L 3553 4666 
L 4184 4666 
L 4184 0 
L 3553 0 
L 3553 2222 
L 1259 2222 
L 1259 0 
L 628 0 
L 628 4666 
z
" transform="scale(0.015625)"/>
       <path id="DejaVuSans-2d" d="M 313 2009 
L 1997 2009 
L 1997 1497 
L 313 1497 
L 313 2009 
z
" transform="scale(0.015625)"/>
       <path id="DejaVuSans-54" d="M -19 4666 
L 3928 4666 
L 3928 4134 
L 2272 4134 
L 2272 0 
L 1638 0 
L 1638 4134 
L -19 4134 
L -19 4666 
z
" transform="scale(0.015625)"/>
       <path id="DejaVuSans-50" d="M 1259 4147 
L 1259 2394 
L 2053 2394 
Q 2494 2394 2734 2622 
Q 2975 2850 2975 3272 
Q 2975 3691 2734 3919 
Q 2494 4147 2053 4147 
L 1259 4147 
z
M 628 4666 
L 2053 4666 
Q 2838 4666 3239 4311 
Q 3641 3956 3641 3272 
Q 3641 2581 3239 2228 
Q 2838 1875 2053 1875 
L 1259 1875 
L 1259 0 
L 628 0 
L 628 4666 
z
" transform="scale(0.015625)"/>
      </defs>
      <use xlink:href="#DejaVuSans-48"/>
      <use xlink:href="#DejaVuSans-32" x="75.195312"/>
      <use xlink:href="#DejaVuSans-2d" x="138.818359"/>
      <use xlink:href="#DejaVuSans-54" x="165.777344"/>
      <use xlink:href="#DejaVuSans-41" x="219.111328"/>
      <use xlink:href="#DejaVuSans-50" x="287.519531"/>
      <use xlink:href="#DejaVuSans-50" x="347.822266"/>
     </g>
    </g>
    <g id="line2d_25">
     <path d="M 378.340312 101.837812 
L 396.340312 101.837812 
L 414.340312 101.837812 
" style="fill: none; stroke: #377eb8; stroke-width: 3; stroke-linecap: square"/>
    </g>
    <g id="text_19">
     <!-- Co-TAPP -->
     <g transform="translate(428.740312 108.137812) scale(0.18 -0.18)">
      <defs>
       <path id="DejaVuSans-43" d="M 4122 4306 
L 4122 3641 
Q 3803 3938 3442 4084 
Q 3081 4231 2675 4231 
Q 1875 4231 1450 3742 
Q 1025 3253 1025 2328 
Q 1025 1406 1450 917 
Q 1875 428 2675 428 
Q 3081 428 3442 575 
Q 3803 722 4122 1019 
L 4122 359 
Q 3791 134 3420 21 
Q 3050 -91 2638 -91 
Q 1578 -91 968 557 
Q 359 1206 359 2328 
Q 359 3453 968 4101 
Q 1578 4750 2638 4750 
Q 3056 4750 3426 4639 
Q 3797 4528 4122 4306 
z
" transform="scale(0.015625)"/>
      </defs>
      <use xlink:href="#DejaVuSans-43"/>
      <use xlink:href="#DejaVuSans-6f" x="69.824219"/>
      <use xlink:href="#DejaVuSans-2d" x="132.880859"/>
      <use xlink:href="#DejaVuSans-54" x="159.839844"/>
      <use xlink:href="#DejaVuSans-41" x="213.173828"/>
      <use xlink:href="#DejaVuSans-50" x="281.582031"/>
      <use xlink:href="#DejaVuSans-50" x="341.884766"/>
     </g>
    </g>
    <g id="line2d_26">
     <path d="M 378.340312 128.258437 
L 396.340312 128.258437 
L 414.340312 128.258437 
" style="fill: none; stroke: #a65628; stroke-width: 3; stroke-linecap: square"/>
    </g>
    <g id="text_20">
     <!-- Ni-TAPP -->
     <g transform="translate(428.740312 134.558437) scale(0.18 -0.18)">
      <defs>
       <path id="DejaVuSans-4e" d="M 628 4666 
L 1478 4666 
L 3547 763 
L 3547 4666 
L 4159 4666 
L 4159 0 
L 3309 0 
L 1241 3903 
L 1241 0 
L 628 0 
L 628 4666 
z
" transform="scale(0.015625)"/>
      </defs>
      <use xlink:href="#DejaVuSans-4e"/>
      <use xlink:href="#DejaVuSans-69" x="74.804688"/>
      <use xlink:href="#DejaVuSans-2d" x="102.587891"/>
      <use xlink:href="#DejaVuSans-54" x="129.546875"/>
      <use xlink:href="#DejaVuSans-41" x="182.880859"/>
      <use xlink:href="#DejaVuSans-50" x="251.289062"/>
      <use xlink:href="#DejaVuSans-50" x="311.591797"/>
     </g>
    </g>
    <g id="line2d_27">
     <path d="M 378.340312 154.679062 
L 396.340312 154.679062 
L 414.340312 154.679062 
" style="fill: none; stroke: #4daf4a; stroke-width: 3; stroke-linecap: square"/>
    </g>
    <g id="text_21">
     <!-- Zn-TAPP -->
     <g transform="translate(428.740312 160.979062) scale(0.18 -0.18)">
      <defs>
       <path id="DejaVuSans-5a" d="M 359 4666 
L 4025 4666 
L 4025 4184 
L 1075 531 
L 4097 531 
L 4097 0 
L 288 0 
L 288 481 
L 3238 4134 
L 359 4134 
L 359 4666 
z
" transform="scale(0.015625)"/>
      </defs>
      <use xlink:href="#DejaVuSans-5a"/>
      <use xlink:href="#DejaVuSans-6e" x="68.505859"/>
      <use xlink:href="#DejaVuSans-2d" x="131.884766"/>
      <use xlink:href="#DejaVuSans-54" x="158.84375"/>
      <use xlink:href="#DejaVuSans-41" x="212.177734"/>
      <use xlink:href="#DejaVuSans-50" x="280.585938"/>
      <use xlink:href="#DejaVuSans-50" x="340.888672"/>
     </g>
    </g>
   </g>
  </g>
  <g id="text_22">
   <!-- UV-Vis: 1$\mu$M M-TAPP in 1:1 MeOH:MeCN -->
   <g transform="translate(73.62 25.056) scale(0.216 -0.216)">
    <defs>
     <path id="DejaVuSans-55" d="M 556 4666 
L 1191 4666 
L 1191 1831 
Q 1191 1081 1462 751 
Q 1734 422 2344 422 
Q 2950 422 3222 751 
Q 3494 1081 3494 1831 
L 3494 4666 
L 4128 4666 
L 4128 1753 
Q 4128 841 3676 375 
Q 3225 -91 2344 -91 
Q 1459 -91 1007 375 
Q 556 841 556 1753 
L 556 4666 
z
" transform="scale(0.015625)"/>
     <path id="DejaVuSans-56" d="M 1831 0 
L 50 4666 
L 709 4666 
L 2188 738 
L 3669 4666 
L 4325 4666 
L 2547 0 
L 1831 0 
z
" transform="scale(0.015625)"/>
     <path id="DejaVuSans-3a" d="M 750 794 
L 1409 794 
L 1409 0 
L 750 0 
L 750 794 
z
M 750 3309 
L 1409 3309 
L 1409 2516 
L 750 2516 
L 750 3309 
z
" transform="scale(0.015625)"/>
     <path id="DejaVuSans-Oblique-3bc" d="M -84 -1331 
L 856 3500 
L 1434 3500 
L 1009 1322 
Q 997 1256 987 1175 
Q 978 1094 978 1013 
Q 978 722 1161 565 
Q 1344 409 1684 409 
Q 2147 409 2431 671 
Q 2716 934 2816 1459 
L 3213 3500 
L 3788 3500 
L 3266 809 
Q 3253 750 3248 706 
Q 3244 663 3244 628 
Q 3244 531 3283 486 
Q 3322 441 3406 441 
Q 3438 441 3492 456 
Q 3547 472 3647 513 
L 3559 50 
Q 3422 -19 3297 -55 
Q 3172 -91 3053 -91 
Q 2847 -91 2730 40 
Q 2613 172 2613 403 
Q 2438 153 2195 31 
Q 1953 -91 1625 -91 
Q 1334 -91 1117 43 
Q 900 178 831 397 
L 494 -1331 
L -84 -1331 
z
" transform="scale(0.015625)"/>
     <path id="DejaVuSans-4d" d="M 628 4666 
L 1569 4666 
L 2759 1491 
L 3956 4666 
L 4897 4666 
L 4897 0 
L 4281 0 
L 4281 4097 
L 3078 897 
L 2444 897 
L 1241 4097 
L 1241 0 
L 628 0 
L 628 4666 
z
" transform="scale(0.015625)"/>
     <path id="DejaVuSans-4f" d="M 2522 4238 
Q 1834 4238 1429 3725 
Q 1025 3213 1025 2328 
Q 1025 1447 1429 934 
Q 1834 422 2522 422 
Q 3209 422 3611 934 
Q 4013 1447 4013 2328 
Q 4013 3213 3611 3725 
Q 3209 4238 2522 4238 
z
M 2522 4750 
Q 3503 4750 4090 4092 
Q 4678 3434 4678 2328 
Q 4678 1225 4090 567 
Q 3503 -91 2522 -91 
Q 1538 -91 948 565 
Q 359 1222 359 2328 
Q 359 3434 948 4092 
Q 1538 4750 2522 4750 
z
" transform="scale(0.015625)"/>
    </defs>
    <use xlink:href="#DejaVuSans-55" transform="translate(0 0.015625)"/>
    <use xlink:href="#DejaVuSans-56" transform="translate(73.193359 0.015625)"/>
    <use xlink:href="#DejaVuSans-2d" transform="translate(141.601562 0.015625)"/>
    <use xlink:href="#DejaVuSans-56" transform="translate(177.685547 0.015625)"/>
    <use xlink:href="#DejaVuSans-69" transform="translate(246.09375 0.015625)"/>
    <use xlink:href="#DejaVuSans-73" transform="translate(273.876953 0.015625)"/>
    <use xlink:href="#DejaVuSans-3a" transform="translate(325.976562 0.015625)"/>
    <use xlink:href="#DejaVuSans-20" transform="translate(359.667969 0.015625)"/>
    <use xlink:href="#DejaVuSans-31" transform="translate(391.455078 0.015625)"/>
    <use xlink:href="#DejaVuSans-Oblique-3bc" transform="translate(455.078125 0.015625)"/>
    <use xlink:href="#DejaVuSans-4d" transform="translate(518.701172 0.015625)"/>
    <use xlink:href="#DejaVuSans-20" transform="translate(604.980469 0.015625)"/>
    <use xlink:href="#DejaVuSans-4d" transform="translate(636.767578 0.015625)"/>
    <use xlink:href="#DejaVuSans-2d" transform="translate(723.046875 0.015625)"/>
    <use xlink:href="#DejaVuSans-54" transform="translate(759.130859 0.015625)"/>
    <use xlink:href="#DejaVuSans-41" transform="translate(820.214844 0.015625)"/>
    <use xlink:href="#DejaVuSans-50" transform="translate(888.623047 0.015625)"/>
    <use xlink:href="#DejaVuSans-50" transform="translate(948.925781 0.015625)"/>
    <use xlink:href="#DejaVuSans-20" transform="translate(1009.228516 0.015625)"/>
    <use xlink:href="#DejaVuSans-69" transform="translate(1041.015625 0.015625)"/>
    <use xlink:href="#DejaVuSans-6e" transform="translate(1068.798828 0.015625)"/>
    <use xlink:href="#DejaVuSans-20" transform="translate(1132.177734 0.015625)"/>
    <use xlink:href="#DejaVuSans-31" transform="translate(1163.964844 0.015625)"/>
    <use xlink:href="#DejaVuSans-3a" transform="translate(1227.587891 0.015625)"/>
    <use xlink:href="#DejaVuSans-31" transform="translate(1261.279297 0.015625)"/>
    <use xlink:href="#DejaVuSans-20" transform="translate(1324.902344 0.015625)"/>
    <use xlink:href="#DejaVuSans-4d" transform="translate(1356.689453 0.015625)"/>
    <use xlink:href="#DejaVuSans-65" transform="translate(1442.96875 0.015625)"/>
    <use xlink:href="#DejaVuSans-4f" transform="translate(1504.492188 0.015625)"/>
    <use xlink:href="#DejaVuSans-48" transform="translate(1583.203125 0.015625)"/>
    <use xlink:href="#DejaVuSans-3a" transform="translate(1658.398438 0.015625)"/>
    <use xlink:href="#DejaVuSans-4d" transform="translate(1692.089844 0.015625)"/>
    <use xlink:href="#DejaVuSans-65" transform="translate(1778.369141 0.015625)"/>
    <use xlink:href="#DejaVuSans-43" transform="translate(1839.892578 0.015625)"/>
    <use xlink:href="#DejaVuSans-4e" transform="translate(1909.716797 0.015625)"/>
   </g>
  </g>
 </g>
 <defs>
  <clipPath id="p8833b43e9f">
   <rect x="72" y="51.84" width="446.4" height="326.16"/>
  </clipPath>
 </defs>
</svg>
